<svg width="211" height="30" viewBox="0 0 211 30" fill="none" xmlns="http://www.w3.org/2000/svg">
<path d="M198.593 18.5295H196.387L202.519 2.4707H203.931L203.898 3.88247L198.593 18.5295ZM203.015 3.88247L202.993 2.4707H204.394L210.537 18.5295H208.343L203.015 3.88247Z" fill="white"/>
<path d="M190.981 2.4707H193.308L187.363 18.5295H185.709L186.26 16.1031L190.981 2.4707ZM186.536 16.1031L187.12 18.5295H185.466L179.532 2.4707H181.859L186.536 16.1031Z" fill="white"/>
<path d="M164.531 18.5295H162.325L168.458 2.4707H169.869L169.836 3.88247L164.531 18.5295ZM168.954 3.88247L168.932 2.4707H170.333L176.476 18.5295H174.281L168.954 3.88247Z" fill="white"/>
<path d="M151.975 2.4707C153.181 2.4707 154.203 2.65453 155.042 3.02217C155.88 3.38982 156.516 3.93394 156.95 4.65453C157.391 5.36776 157.611 6.24644 157.611 7.29056C157.611 8.02585 157.461 8.69497 157.159 9.29791C156.865 9.90085 156.439 10.4156 155.88 10.842C155.321 11.2685 154.656 11.5847 153.883 11.7906L153.288 12.0222H148.303L148.281 10.3016H152.031C152.795 10.3016 153.431 10.1656 153.939 9.8935C154.446 9.62144 154.825 9.25747 155.075 8.80159C155.332 8.3457 155.461 7.84203 155.461 7.29056C155.461 6.35673 155.185 5.61041 154.633 5.05159C154.082 4.48541 153.196 4.20232 151.975 4.20232H148.799V18.5295H146.659V2.4707H151.975ZM152.13 11.2501H154.369L158.317 18.3972V18.5295H156.023L152.13 11.2501Z" fill="white"/>
<path d="M130.952 11.0075L130.93 9.31997H134.613C135.525 9.31997 136.26 9.09203 136.819 8.63614C137.378 8.18026 137.657 7.54423 137.657 6.72806C137.657 5.8457 137.4 5.206 136.885 4.80894C136.378 4.40453 135.602 4.20232 134.558 4.20232H131.426V18.5295H129.286V2.4707H134.558C136.198 2.4707 137.481 2.81261 138.407 3.49644C139.334 4.17291 139.797 5.25747 139.797 6.75011C139.797 7.41188 139.628 8.01114 139.29 8.54791C138.952 9.07732 138.477 9.51114 137.867 9.84938C137.264 10.1876 136.562 10.4045 135.76 10.5001L135.01 11.0075H130.952ZM130.102 18.5295L131.327 16.8089H134.911C135.918 16.8089 136.698 16.5479 137.249 16.0258C137.801 15.5038 138.077 14.8016 138.077 13.9192C138.077 13.3236 137.97 12.8089 137.757 12.3751C137.543 11.9339 137.213 11.5957 136.764 11.3604C136.316 11.1251 135.731 11.0075 135.01 11.0075H131.977L131.999 9.31997H136.146L136.599 9.93761C137.371 10.0038 138.025 10.2207 138.562 10.5883C139.099 10.956 139.507 11.4266 139.786 12.0001C140.073 12.5736 140.216 13.206 140.216 13.8972C140.216 15.4045 139.731 16.5553 138.76 17.3494C137.797 18.1361 136.514 18.5295 134.911 18.5295H130.102Z" fill="white"/>
<path d="M106.276 18.5295H104.07L110.203 2.4707H111.614L111.581 3.88247L106.276 18.5295ZM110.699 3.88247L110.677 2.4707H112.078L118.221 18.5295H116.026L110.699 3.88247Z" fill="white"/>
<path d="M96.0738 18.5295H93.9561V2.4707H96.0738V18.5295ZM101.224 4.20232H88.8164V2.4707H101.224V4.20232Z" fill="white"/>
<path d="M81.9637 14.4706C81.9637 13.9632 81.8571 13.5331 81.6438 13.1801C81.4306 12.8272 81.0483 12.5074 80.4968 12.2206C79.9453 11.9338 79.1622 11.6434 78.1475 11.3493C77.3534 11.1213 76.6365 10.864 75.9968 10.5772C75.3644 10.2831 74.8203 9.94853 74.3644 9.57353C73.9085 9.19853 73.5593 8.76838 73.3166 8.28309C73.074 7.79779 72.9527 7.24265 72.9527 6.61765C72.9527 5.77941 73.1769 5.03309 73.6255 4.37868C74.0813 3.71691 74.7174 3.19853 75.5335 2.82353C76.3497 2.44118 77.3056 2.25 78.4012 2.25C79.6144 2.25 80.6438 2.48162 81.4894 2.94485C82.335 3.40074 82.9784 4 83.4196 4.74265C83.8608 5.47794 84.0813 6.26471 84.0813 7.10294H81.9306C81.9306 6.5 81.8019 5.96324 81.5446 5.49265C81.2946 5.02206 80.9085 4.65441 80.3865 4.38971C79.8644 4.11765 79.2027 3.98162 78.4012 3.98162C77.6512 3.98162 77.0299 4.09559 76.5372 4.32353C76.0519 4.55147 75.6916 4.86029 75.4563 5.25C75.221 5.63971 75.1034 6.08456 75.1034 6.58456C75.1034 7.03309 75.2321 7.43382 75.4894 7.78676C75.7468 8.13235 76.1512 8.44485 76.7027 8.72426C77.2541 9.00368 77.9674 9.26838 78.8424 9.51838C80.0556 9.85662 81.0519 10.25 81.8313 10.6985C82.6108 11.1471 83.1843 11.6765 83.5519 12.2868C83.9269 12.8971 84.1144 13.6176 84.1144 14.4485C84.1144 15.3162 83.8828 16.0735 83.4196 16.7206C82.9563 17.3676 82.3056 17.8676 81.4674 18.2206C80.6291 18.5735 79.6438 18.75 78.5115 18.75C77.7688 18.75 77.0372 18.6471 76.3166 18.4412C75.6034 18.2353 74.9527 17.9265 74.3644 17.5147C73.7835 17.1029 73.3166 16.5956 72.9637 15.9926C72.6181 15.3824 72.4453 14.6765 72.4453 13.875H74.585C74.585 14.4265 74.6916 14.9007 74.9049 15.2978C75.1181 15.6949 75.4085 16.0221 75.7762 16.2794C76.1438 16.5368 76.563 16.7279 77.0335 16.8529C77.5041 16.9706 77.9968 17.0294 78.5115 17.0294C79.2541 17.0294 79.8791 16.9265 80.3865 16.7206C80.9012 16.5074 81.2909 16.2096 81.5556 15.8272C81.8277 15.4449 81.9637 14.9926 81.9637 14.4706Z" fill="white"/>
<path d="M66.9284 11.0184C66.9284 12.6213 66.6637 14 66.1343 15.1544C65.6049 16.3088 64.8586 17.1985 63.8953 17.8235C62.9321 18.4412 61.7961 18.75 60.4872 18.75C59.2225 18.75 58.1012 18.4412 57.1233 17.8235C56.1453 17.1985 55.3806 16.3088 54.8292 15.1544C54.2777 14 54.002 12.6213 54.002 11.0184V9.99265C54.002 8.38971 54.274 7.01103 54.8181 5.85662C55.3696 4.69485 56.1306 3.80515 57.1012 3.1875C58.0792 2.5625 59.2005 2.25 60.4652 2.25C61.774 2.25 62.91 2.5625 63.8733 3.1875C64.8439 3.80515 65.5939 4.69485 66.1233 5.85662C66.66 7.01103 66.9284 8.38971 66.9284 9.99265V11.0184ZM64.8108 9.97059C64.8108 8.69118 64.638 7.61397 64.2924 6.73897C63.9468 5.85662 63.4505 5.1875 62.8034 4.73162C62.1564 4.27574 61.377 4.04779 60.4652 4.04779C59.5902 4.04779 58.8255 4.27574 58.1711 4.73162C57.524 5.1875 57.0203 5.85662 56.66 6.73897C56.3071 7.61397 56.1306 8.69118 56.1306 9.97059V11.0184C56.1306 12.3051 56.3108 13.3897 56.6711 14.2721C57.0314 15.1544 57.5387 15.8235 58.1931 16.2794C58.8475 16.7353 59.6122 16.9632 60.4872 16.9632C61.4064 16.9632 62.1858 16.7353 62.8255 16.2794C63.4725 15.8235 63.9652 15.1544 64.3034 14.2721C64.6417 13.3897 64.8108 12.3051 64.8108 11.0184V9.97059Z" fill="white"/>
<path d="M48.375 13.4338C48.2647 14.4412 47.9743 15.3493 47.5037 16.1581C47.0331 16.9596 46.3676 17.5919 45.5074 18.0551C44.6471 18.5184 43.5699 18.75 42.2757 18.75C41.0184 18.75 39.9191 18.4449 38.9779 17.8346C38.0368 17.2169 37.3051 16.3493 36.7831 15.2316C36.261 14.114 36 12.8088 36 11.3162V9.69485C36 8.19485 36.261 6.88971 36.7831 5.77941C37.3125 4.66176 38.0625 3.79412 39.0331 3.17647C40.0037 2.55882 41.1507 2.25 42.4743 2.25C43.6875 2.25 44.7132 2.47794 45.5515 2.93382C46.3897 3.38235 47.0404 4.01103 47.5037 4.81985C47.9743 5.62868 48.2647 6.5625 48.375 7.62132H46.2353C46.0735 6.49632 45.7132 5.61029 45.1544 4.96324C44.6029 4.30882 43.7096 3.98162 42.4743 3.98162C41.5257 3.98162 40.7316 4.22059 40.0919 4.69853C39.4522 5.16912 38.9669 5.83088 38.636 6.68382C38.3125 7.53676 38.1507 8.53309 38.1507 9.67279V11.3162C38.1507 12.3676 38.2978 13.3272 38.5919 14.1949C38.886 15.0551 39.3346 15.7426 39.9375 16.2574C40.5478 16.7721 41.3272 17.0294 42.2757 17.0294C43.1801 17.0294 43.8971 16.886 44.4265 16.5993C44.9632 16.3125 45.3676 15.9007 45.6397 15.364C45.9191 14.8272 46.1176 14.1838 46.2353 13.4338H48.375Z" fill="white"/>
<path d="M9.99256 22.2109C17.4984 23.9195 21.6124 19.6174 22.7312 17.2528L22.8074 17.1001L23.2651 17.2528C21.3734 22.5008 15.3067 23.6602 12.5098 23.5838C11.2893 23.6601 7.99405 23.233 4.57674 20.9141C1.15944 18.5952 0 14.3542 0 11.4555C0.203411 8.73494 1.37302 3.2937 7.70419 0.85279C12.9823 -1.18211 18.5104 0.903654 20.8242 2.14955L21.1293 6.72625C19.0545 1.17313 13.8065 0.85279 11.1367 1.15787C8.16186 1.49783 2.51721 4.19378 2.51721 11.4555C2.51721 18.7173 7.50077 21.6515 9.99256 22.2109Z" fill="white"/>
<path d="M23.2642 9.30595C22.5777 8.39058 20.5944 7.93293 19.0688 7.93293V8.772H16.933C16.811 7.67358 15.204 7.14471 14.4158 7.01758H19.1451C20.4266 7.01758 22.0691 7.27184 22.7302 7.39897C23.8998 7.67866 26.3001 8.89404 26.5442 11.518C26.7883 14.142 25.1203 15.9168 24.2558 16.4762C25.7051 16.7559 28.8631 17.8339 29.9005 19.9087C30.9379 21.9835 30.397 25.0957 29.7479 26.1636C28.9597 27.4604 26.3006 29.8555 22.5782 29.9776C19.1456 30.0901 17.3147 29.825 15.026 28.0706C13.3137 26.758 12.6364 23.5701 12.6618 21.892C13.8213 27.262 17.3149 28.5283 18.9167 28.7571C20.3523 28.9622 21.6628 29.0622 23.5693 28.6808C26.8909 28.0164 28.0698 25.103 28.0698 23.4939C28.0698 21.892 28.1421 20.5953 26.6967 19.0697C25.3237 17.6204 21.9675 16.9847 20.2893 16.9339C21.8759 16.8118 22.9363 16.0529 23.2642 15.4846C24.4084 13.5013 24.3559 10.7616 23.2642 9.30595Z" fill="white"/>
<rect x="16.9346" y="8.69629" width="2.13581" height="20.2902" fill="white"/>
<path d="M197.541 26.8564C197.32 26.8564 197.155 26.8148 197.047 26.7314C196.943 26.6439 196.891 26.5294 196.891 26.3877C196.891 26.271 196.943 26.1648 197.047 26.0689C197.155 25.9689 197.32 25.9189 197.541 25.9189C197.761 25.9189 197.924 25.9627 198.028 26.0502C198.136 26.1335 198.191 26.246 198.191 26.3877C198.191 26.5044 198.136 26.6127 198.028 26.7127C197.924 26.8085 197.761 26.8564 197.541 26.8564Z" fill="#1E1E1E"/>
<path d="M197.541 26.8564C197.32 26.8564 197.155 26.8148 197.047 26.7314C196.943 26.6439 196.891 26.5294 196.891 26.3877C196.891 26.271 196.943 26.1648 197.047 26.0689C197.155 25.9689 197.32 25.9189 197.541 25.9189C197.761 25.9189 197.924 25.9627 198.028 26.0502C198.136 26.1335 198.191 26.246 198.191 26.3877C198.191 26.5044 198.136 26.6127 198.028 26.7127C197.924 26.8085 197.761 26.8564 197.541 26.8564Z" fill="#1E1E1E"/>
<path d="M197.541 26.8564C197.32 26.8564 197.155 26.8148 197.047 26.7314C196.943 26.6439 196.891 26.5294 196.891 26.3877C196.891 26.271 196.943 26.1648 197.047 26.0689C197.155 25.9689 197.32 25.9189 197.541 25.9189C197.761 25.9189 197.924 25.9627 198.028 26.0502C198.136 26.1335 198.191 26.246 198.191 26.3877C198.191 26.5044 198.136 26.6127 198.028 26.7127C197.924 26.8085 197.761 26.8564 197.541 26.8564Z" fill="#1E1E1E"/>
<path d="M188.709 28.4375V24.0625H189.378L192.928 27.6438L192.89 27.7C192.869 27.575 192.851 27.4417 192.834 27.3C192.821 27.1542 192.811 27.0063 192.803 26.8563C192.794 26.7021 192.786 26.5479 192.778 26.3938C192.774 26.2354 192.769 26.0813 192.765 25.9313C192.765 25.7813 192.765 25.6375 192.765 25.5V24.0625H193.44V28.4375H192.759L189.253 24.9875L189.259 24.9C189.267 24.975 189.276 25.0646 189.284 25.1688C189.292 25.2729 189.303 25.3854 189.315 25.5063C189.328 25.6271 189.338 25.7521 189.346 25.8813C189.359 26.0063 189.367 26.1333 189.371 26.2625C189.38 26.3875 189.384 26.5062 189.384 26.6187V28.4375H188.709Z" fill="#1E1E1E"/>
<path d="M188.709 28.4375V24.0625H189.378L192.928 27.6438L192.89 27.7C192.869 27.575 192.851 27.4417 192.834 27.3C192.821 27.1542 192.811 27.0063 192.803 26.8563C192.794 26.7021 192.786 26.5479 192.778 26.3938C192.774 26.2354 192.769 26.0813 192.765 25.9313C192.765 25.7813 192.765 25.6375 192.765 25.5V24.0625H193.44V28.4375H192.759L189.253 24.9875L189.259 24.9C189.267 24.975 189.276 25.0646 189.284 25.1688C189.292 25.2729 189.303 25.3854 189.315 25.5063C189.328 25.6271 189.338 25.7521 189.346 25.8813C189.359 26.0063 189.367 26.1333 189.371 26.2625C189.38 26.3875 189.384 26.5062 189.384 26.6187V28.4375H188.709Z" fill="#1E1E1E"/>
<path d="M188.709 28.4375V24.0625H189.378L192.928 27.6438L192.89 27.7C192.869 27.575 192.851 27.4417 192.834 27.3C192.821 27.1542 192.811 27.0063 192.803 26.8563C192.794 26.7021 192.786 26.5479 192.778 26.3938C192.774 26.2354 192.769 26.0813 192.765 25.9313C192.765 25.7813 192.765 25.6375 192.765 25.5V24.0625H193.44V28.4375H192.759L189.253 24.9875L189.259 24.9C189.267 24.975 189.276 25.0646 189.284 25.1688C189.292 25.2729 189.303 25.3854 189.315 25.5063C189.328 25.6271 189.338 25.7521 189.346 25.8813C189.359 26.0063 189.367 26.1333 189.371 26.2625C189.38 26.3875 189.384 26.5062 189.384 26.6187V28.4375H188.709Z" fill="#1E1E1E"/>
<path d="M182.881 28.5C182.494 28.5 182.139 28.4437 181.819 28.3312C181.498 28.2146 181.219 28.0542 180.981 27.85C180.744 27.6417 180.56 27.4021 180.431 27.1312C180.302 26.8562 180.237 26.5625 180.237 26.25C180.237 25.9375 180.302 25.6458 180.431 25.375C180.56 25.1 180.744 24.8604 180.981 24.6563C181.219 24.4479 181.498 24.2875 181.819 24.175C182.139 24.0583 182.494 24 182.881 24C183.264 24 183.616 24.0583 183.937 24.175C184.258 24.2875 184.537 24.4479 184.775 24.6563C185.012 24.8604 185.196 25.1 185.325 25.375C185.458 25.6458 185.525 25.9375 185.525 26.25C185.525 26.5625 185.458 26.8562 185.325 27.1312C185.196 27.4021 185.012 27.6417 184.775 27.85C184.537 28.0542 184.258 28.2146 183.937 28.3312C183.616 28.4437 183.264 28.5 182.881 28.5ZM182.881 27.8437C183.169 27.8437 183.431 27.8042 183.669 27.725C183.906 27.6417 184.112 27.5292 184.287 27.3875C184.462 27.2417 184.598 27.0729 184.694 26.8813C184.789 26.6854 184.837 26.475 184.837 26.25C184.837 26.025 184.789 25.8167 184.694 25.625C184.598 25.4292 184.462 25.2604 184.287 25.1188C184.112 24.9729 183.906 24.8604 183.669 24.7812C183.431 24.6979 183.169 24.6563 182.881 24.6563C182.594 24.6563 182.329 24.6979 182.087 24.7812C181.85 24.8604 181.644 24.9729 181.469 25.1188C181.294 25.2604 181.158 25.4292 181.062 25.625C180.971 25.8167 180.925 26.025 180.925 26.25C180.925 26.475 180.971 26.6854 181.062 26.8813C181.158 27.0729 181.294 27.2417 181.469 27.3875C181.644 27.5292 181.85 27.6417 182.087 27.725C182.329 27.8042 182.594 27.8437 182.881 27.8437Z" fill="#1E1E1E"/>
<path d="M182.881 28.5C182.494 28.5 182.139 28.4437 181.819 28.3312C181.498 28.2146 181.219 28.0542 180.981 27.85C180.744 27.6417 180.56 27.4021 180.431 27.1312C180.302 26.8562 180.237 26.5625 180.237 26.25C180.237 25.9375 180.302 25.6458 180.431 25.375C180.56 25.1 180.744 24.8604 180.981 24.6563C181.219 24.4479 181.498 24.2875 181.819 24.175C182.139 24.0583 182.494 24 182.881 24C183.264 24 183.616 24.0583 183.937 24.175C184.258 24.2875 184.537 24.4479 184.775 24.6563C185.012 24.8604 185.196 25.1 185.325 25.375C185.458 25.6458 185.525 25.9375 185.525 26.25C185.525 26.5625 185.458 26.8562 185.325 27.1312C185.196 27.4021 185.012 27.6417 184.775 27.85C184.537 28.0542 184.258 28.2146 183.937 28.3312C183.616 28.4437 183.264 28.5 182.881 28.5ZM182.881 27.8437C183.169 27.8437 183.431 27.8042 183.669 27.725C183.906 27.6417 184.112 27.5292 184.287 27.3875C184.462 27.2417 184.598 27.0729 184.694 26.8813C184.789 26.6854 184.837 26.475 184.837 26.25C184.837 26.025 184.789 25.8167 184.694 25.625C184.598 25.4292 184.462 25.2604 184.287 25.1188C184.112 24.9729 183.906 24.8604 183.669 24.7812C183.431 24.6979 183.169 24.6563 182.881 24.6563C182.594 24.6563 182.329 24.6979 182.087 24.7812C181.85 24.8604 181.644 24.9729 181.469 25.1188C181.294 25.2604 181.158 25.4292 181.062 25.625C180.971 25.8167 180.925 26.025 180.925 26.25C180.925 26.475 180.971 26.6854 181.062 26.8813C181.158 27.0729 181.294 27.2417 181.469 27.3875C181.644 27.5292 181.85 27.6417 182.087 27.725C182.329 27.8042 182.594 27.8437 182.881 27.8437Z" fill="#1E1E1E"/>
<path d="M182.881 28.5C182.494 28.5 182.139 28.4437 181.819 28.3312C181.498 28.2146 181.219 28.0542 180.981 27.85C180.744 27.6417 180.56 27.4021 180.431 27.1312C180.302 26.8562 180.237 26.5625 180.237 26.25C180.237 25.9375 180.302 25.6458 180.431 25.375C180.56 25.1 180.744 24.8604 180.981 24.6563C181.219 24.4479 181.498 24.2875 181.819 24.175C182.139 24.0583 182.494 24 182.881 24C183.264 24 183.616 24.0583 183.937 24.175C184.258 24.2875 184.537 24.4479 184.775 24.6563C185.012 24.8604 185.196 25.1 185.325 25.375C185.458 25.6458 185.525 25.9375 185.525 26.25C185.525 26.5625 185.458 26.8562 185.325 27.1312C185.196 27.4021 185.012 27.6417 184.775 27.85C184.537 28.0542 184.258 28.2146 183.937 28.3312C183.616 28.4437 183.264 28.5 182.881 28.5ZM182.881 27.8437C183.169 27.8437 183.431 27.8042 183.669 27.725C183.906 27.6417 184.112 27.5292 184.287 27.3875C184.462 27.2417 184.598 27.0729 184.694 26.8813C184.789 26.6854 184.837 26.475 184.837 26.25C184.837 26.025 184.789 25.8167 184.694 25.625C184.598 25.4292 184.462 25.2604 184.287 25.1188C184.112 24.9729 183.906 24.8604 183.669 24.7812C183.431 24.6979 183.169 24.6563 182.881 24.6563C182.594 24.6563 182.329 24.6979 182.087 24.7812C181.85 24.8604 181.644 24.9729 181.469 25.1188C181.294 25.2604 181.158 25.4292 181.062 25.625C180.971 25.8167 180.925 26.025 180.925 26.25C180.925 26.475 180.971 26.6854 181.062 26.8813C181.158 27.0729 181.294 27.2417 181.469 27.3875C181.644 27.5292 181.85 27.6417 182.087 27.725C182.329 27.8042 182.594 27.8437 182.881 27.8437Z" fill="#1E1E1E"/>
<path d="M174.824 28.5004C174.478 28.5004 174.149 28.4525 173.836 28.3566C173.524 28.2608 173.247 28.1191 173.005 27.9316C172.763 27.7441 172.572 27.5108 172.43 27.2316C172.292 26.9483 172.224 26.6212 172.224 26.2504C172.224 25.9379 172.292 25.6462 172.43 25.3754C172.567 25.1046 172.759 24.8691 173.005 24.6691C173.255 24.465 173.542 24.3066 173.867 24.1941C174.197 24.0816 174.549 24.0254 174.924 24.0254C175.24 24.0254 175.532 24.0608 175.799 24.1316C176.069 24.2025 176.307 24.2941 176.511 24.4066C176.719 24.5191 176.882 24.64 176.999 24.7691L176.561 25.2629C176.411 25.1462 176.249 25.0462 176.074 24.9629C175.903 24.8754 175.719 24.8066 175.524 24.7566C175.332 24.7066 175.132 24.6816 174.924 24.6816C174.644 24.6816 174.384 24.7212 174.142 24.8004C173.905 24.8796 173.694 24.99 173.511 25.1316C173.332 25.2733 173.192 25.44 173.092 25.6316C172.992 25.8191 172.942 26.0254 172.942 26.2504C172.942 26.5254 172.994 26.765 173.099 26.9691C173.207 27.1691 173.353 27.3337 173.536 27.4629C173.719 27.5921 173.926 27.6879 174.155 27.7504C174.388 27.8129 174.63 27.8441 174.88 27.8441C175.134 27.8441 175.372 27.8212 175.592 27.7754C175.817 27.7254 176.013 27.6566 176.18 27.5691C176.347 27.4775 176.476 27.3712 176.567 27.2504C176.659 27.1296 176.699 26.9983 176.686 26.8566L176.68 26.7754L176.78 26.9129H174.911V26.2566H177.411C177.419 26.3191 177.426 26.3691 177.43 26.4066C177.434 26.4441 177.436 26.4733 177.436 26.4941C177.436 26.5108 177.436 26.5275 177.436 26.5441C177.436 26.8733 177.372 27.1608 177.242 27.4066C177.117 27.6525 176.938 27.8566 176.705 28.0191C176.476 28.1775 176.201 28.2983 175.88 28.3816C175.563 28.4608 175.211 28.5004 174.824 28.5004Z" fill="#1E1E1E"/>
<path d="M174.824 28.5004C174.478 28.5004 174.149 28.4525 173.836 28.3566C173.524 28.2608 173.247 28.1191 173.005 27.9316C172.763 27.7441 172.572 27.5108 172.43 27.2316C172.292 26.9483 172.224 26.6212 172.224 26.2504C172.224 25.9379 172.292 25.6462 172.43 25.3754C172.567 25.1046 172.759 24.8691 173.005 24.6691C173.255 24.465 173.542 24.3066 173.867 24.1941C174.197 24.0816 174.549 24.0254 174.924 24.0254C175.24 24.0254 175.532 24.0608 175.799 24.1316C176.069 24.2025 176.307 24.2941 176.511 24.4066C176.719 24.5191 176.882 24.64 176.999 24.7691L176.561 25.2629C176.411 25.1462 176.249 25.0462 176.074 24.9629C175.903 24.8754 175.719 24.8066 175.524 24.7566C175.332 24.7066 175.132 24.6816 174.924 24.6816C174.644 24.6816 174.384 24.7212 174.142 24.8004C173.905 24.8796 173.694 24.99 173.511 25.1316C173.332 25.2733 173.192 25.44 173.092 25.6316C172.992 25.8191 172.942 26.0254 172.942 26.2504C172.942 26.5254 172.994 26.765 173.099 26.9691C173.207 27.1691 173.353 27.3337 173.536 27.4629C173.719 27.5921 173.926 27.6879 174.155 27.7504C174.388 27.8129 174.63 27.8441 174.88 27.8441C175.134 27.8441 175.372 27.8212 175.592 27.7754C175.817 27.7254 176.013 27.6566 176.18 27.5691C176.347 27.4775 176.476 27.3712 176.567 27.2504C176.659 27.1296 176.699 26.9983 176.686 26.8566L176.68 26.7754L176.78 26.9129H174.911V26.2566H177.411C177.419 26.3191 177.426 26.3691 177.43 26.4066C177.434 26.4441 177.436 26.4733 177.436 26.4941C177.436 26.5108 177.436 26.5275 177.436 26.5441C177.436 26.8733 177.372 27.1608 177.242 27.4066C177.117 27.6525 176.938 27.8566 176.705 28.0191C176.476 28.1775 176.201 28.2983 175.88 28.3816C175.563 28.4608 175.211 28.5004 174.824 28.5004Z" fill="#1E1E1E"/>
<path d="M174.824 28.5004C174.478 28.5004 174.149 28.4525 173.836 28.3566C173.524 28.2608 173.247 28.1191 173.005 27.9316C172.763 27.7441 172.572 27.5108 172.43 27.2316C172.292 26.9483 172.224 26.6212 172.224 26.2504C172.224 25.9379 172.292 25.6462 172.43 25.3754C172.567 25.1046 172.759 24.8691 173.005 24.6691C173.255 24.465 173.542 24.3066 173.867 24.1941C174.197 24.0816 174.549 24.0254 174.924 24.0254C175.24 24.0254 175.532 24.0608 175.799 24.1316C176.069 24.2025 176.307 24.2941 176.511 24.4066C176.719 24.5191 176.882 24.64 176.999 24.7691L176.561 25.2629C176.411 25.1462 176.249 25.0462 176.074 24.9629C175.903 24.8754 175.719 24.8066 175.524 24.7566C175.332 24.7066 175.132 24.6816 174.924 24.6816C174.644 24.6816 174.384 24.7212 174.142 24.8004C173.905 24.8796 173.694 24.99 173.511 25.1316C173.332 25.2733 173.192 25.44 173.092 25.6316C172.992 25.8191 172.942 26.0254 172.942 26.2504C172.942 26.5254 172.994 26.765 173.099 26.9691C173.207 27.1691 173.353 27.3337 173.536 27.4629C173.719 27.5921 173.926 27.6879 174.155 27.7504C174.388 27.8129 174.63 27.8441 174.88 27.8441C175.134 27.8441 175.372 27.8212 175.592 27.7754C175.817 27.7254 176.013 27.6566 176.18 27.5691C176.347 27.4775 176.476 27.3712 176.567 27.2504C176.659 27.1296 176.699 26.9983 176.686 26.8566L176.68 26.7754L176.78 26.9129H174.911V26.2566H177.411C177.419 26.3191 177.426 26.3691 177.43 26.4066C177.434 26.4441 177.436 26.4733 177.436 26.4941C177.436 26.5108 177.436 26.5275 177.436 26.5441C177.436 26.8733 177.372 27.1608 177.242 27.4066C177.117 27.6525 176.938 27.8566 176.705 28.0191C176.476 28.1775 176.201 28.2983 175.88 28.3816C175.563 28.4608 175.211 28.5004 174.824 28.5004Z" fill="#1E1E1E"/>
<path d="M166.119 28.4375V27.7687H167.263V24.7312H166.119V24.0625H169.082V24.7312H167.938V27.7687H169.082V28.4375H166.119Z" fill="#1E1E1E"/>
<path d="M166.119 28.4375V27.7687H167.263V24.7312H166.119V24.0625H169.082V24.7312H167.938V27.7687H169.082V28.4375H166.119Z" fill="#1E1E1E"/>
<path d="M166.119 28.4375V27.7687H167.263V24.7312H166.119V24.0625H169.082V24.7312H167.938V27.7687H169.082V28.4375H166.119Z" fill="#1E1E1E"/>
<path d="M157.471 28.4375V24.0625H158.133L160.127 26.5313H159.889L161.883 24.0625H162.546V28.4375H161.871V26.5813C161.871 26.2354 161.879 25.9104 161.896 25.6063C161.912 25.3021 161.946 24.9917 161.996 24.675L162.064 24.9313L160.214 27.1813H159.802L157.952 24.9313L158.021 24.675C158.071 24.9917 158.104 25.3021 158.121 25.6063C158.137 25.9104 158.146 26.2354 158.146 26.5813V28.4375H157.471Z" fill="#1E1E1E"/>
<path d="M157.471 28.4375V24.0625H158.133L160.127 26.5313H159.889L161.883 24.0625H162.546V28.4375H161.871V26.5813C161.871 26.2354 161.879 25.9104 161.896 25.6063C161.912 25.3021 161.946 24.9917 161.996 24.675L162.064 24.9313L160.214 27.1813H159.802L157.952 24.9313L158.021 24.675C158.071 24.9917 158.104 25.3021 158.121 25.6063C158.137 25.9104 158.146 26.2354 158.146 26.5813V28.4375H157.471Z" fill="#1E1E1E"/>
<path d="M157.471 28.4375V24.0625H158.133L160.127 26.5313H159.889L161.883 24.0625H162.546V28.4375H161.871V26.5813C161.871 26.2354 161.879 25.9104 161.896 25.6063C161.912 25.3021 161.946 24.9917 161.996 24.675L162.064 24.9313L160.214 27.1813H159.802L157.952 24.9313L158.021 24.675C158.071 24.9917 158.104 25.3021 158.121 25.6063C158.137 25.9104 158.146 26.2354 158.146 26.5813V28.4375H157.471Z" fill="#1E1E1E"/>
<path d="M149.904 28.4375V24.0625H152.461C152.719 24.0625 152.954 24.1229 153.167 24.2438C153.383 24.3604 153.556 24.5208 153.686 24.725C153.815 24.9292 153.879 25.1563 153.879 25.4063C153.879 25.6688 153.808 25.9083 153.667 26.125C153.525 26.3375 153.338 26.5083 153.104 26.6375C152.871 26.7625 152.615 26.825 152.336 26.825H150.579V28.4375H149.904ZM153.292 28.4375L151.804 26.4625L152.523 26.3063L154.136 28.4438L153.292 28.4375ZM150.579 26.175H152.273C152.431 26.175 152.577 26.1396 152.711 26.0688C152.848 25.9979 152.956 25.9042 153.036 25.7875C153.119 25.6708 153.161 25.5438 153.161 25.4063C153.161 25.2771 153.119 25.1604 153.036 25.0563C152.956 24.9521 152.848 24.8688 152.711 24.8063C152.577 24.7438 152.431 24.7125 152.273 24.7125H150.579V26.175Z" fill="#1E1E1E"/>
<path d="M149.904 28.4375V24.0625H152.461C152.719 24.0625 152.954 24.1229 153.167 24.2438C153.383 24.3604 153.556 24.5208 153.686 24.725C153.815 24.9292 153.879 25.1563 153.879 25.4063C153.879 25.6688 153.808 25.9083 153.667 26.125C153.525 26.3375 153.338 26.5083 153.104 26.6375C152.871 26.7625 152.615 26.825 152.336 26.825H150.579V28.4375H149.904ZM153.292 28.4375L151.804 26.4625L152.523 26.3063L154.136 28.4438L153.292 28.4375ZM150.579 26.175H152.273C152.431 26.175 152.577 26.1396 152.711 26.0688C152.848 25.9979 152.956 25.9042 153.036 25.7875C153.119 25.6708 153.161 25.5438 153.161 25.4063C153.161 25.2771 153.119 25.1604 153.036 25.0563C152.956 24.9521 152.848 24.8688 152.711 24.8063C152.577 24.7438 152.431 24.7125 152.273 24.7125H150.579V26.175Z" fill="#1E1E1E"/>
<path d="M149.904 28.4375V24.0625H152.461C152.719 24.0625 152.954 24.1229 153.167 24.2438C153.383 24.3604 153.556 24.5208 153.686 24.725C153.815 24.9292 153.879 25.1563 153.879 25.4063C153.879 25.6688 153.808 25.9083 153.667 26.125C153.525 26.3375 153.338 26.5083 153.104 26.6375C152.871 26.7625 152.615 26.825 152.336 26.825H150.579V28.4375H149.904ZM153.292 28.4375L151.804 26.4625L152.523 26.3063L154.136 28.4438L153.292 28.4375ZM150.579 26.175H152.273C152.431 26.175 152.577 26.1396 152.711 26.0688C152.848 25.9979 152.956 25.9042 153.036 25.7875C153.119 25.6708 153.161 25.5438 153.161 25.4063C153.161 25.2771 153.119 25.1604 153.036 25.0563C152.956 24.9521 152.848 24.8688 152.711 24.8063C152.577 24.7438 152.431 24.7125 152.273 24.7125H150.579V26.175Z" fill="#1E1E1E"/>
<path d="M144.075 28.5C143.688 28.5 143.334 28.4437 143.013 28.3312C142.692 28.2146 142.413 28.0542 142.175 27.85C141.938 27.6417 141.755 27.4021 141.625 27.1312C141.496 26.8562 141.432 26.5625 141.432 26.25C141.432 25.9375 141.496 25.6458 141.625 25.375C141.755 25.1 141.938 24.8604 142.175 24.6563C142.413 24.4479 142.692 24.2875 143.013 24.175C143.334 24.0583 143.688 24 144.075 24C144.459 24 144.811 24.0583 145.132 24.175C145.452 24.2875 145.732 24.4479 145.969 24.6563C146.207 24.8604 146.39 25.1 146.519 25.375C146.652 25.6458 146.719 25.9375 146.719 26.25C146.719 26.5625 146.652 26.8562 146.519 27.1312C146.39 27.4021 146.207 27.6417 145.969 27.85C145.732 28.0542 145.452 28.2146 145.132 28.3312C144.811 28.4437 144.459 28.5 144.075 28.5ZM144.075 27.8437C144.363 27.8437 144.625 27.8042 144.863 27.725C145.1 27.6417 145.307 27.5292 145.482 27.3875C145.657 27.2417 145.792 27.0729 145.888 26.8813C145.984 26.6854 146.032 26.475 146.032 26.25C146.032 26.025 145.984 25.8167 145.888 25.625C145.792 25.4292 145.657 25.2604 145.482 25.1188C145.307 24.9729 145.1 24.8604 144.863 24.7812C144.625 24.6979 144.363 24.6563 144.075 24.6563C143.788 24.6563 143.523 24.6979 143.282 24.7812C143.044 24.8604 142.838 24.9729 142.663 25.1188C142.488 25.2604 142.352 25.4292 142.257 25.625C142.165 25.8167 142.119 26.025 142.119 26.25C142.119 26.475 142.165 26.6854 142.257 26.8813C142.352 27.0729 142.488 27.2417 142.663 27.3875C142.838 27.5292 143.044 27.6417 143.282 27.725C143.523 27.8042 143.788 27.8437 144.075 27.8437Z" fill="#1E1E1E"/>
<path d="M144.075 28.5C143.688 28.5 143.334 28.4437 143.013 28.3312C142.692 28.2146 142.413 28.0542 142.175 27.85C141.938 27.6417 141.755 27.4021 141.625 27.1312C141.496 26.8562 141.432 26.5625 141.432 26.25C141.432 25.9375 141.496 25.6458 141.625 25.375C141.755 25.1 141.938 24.8604 142.175 24.6563C142.413 24.4479 142.692 24.2875 143.013 24.175C143.334 24.0583 143.688 24 144.075 24C144.459 24 144.811 24.0583 145.132 24.175C145.452 24.2875 145.732 24.4479 145.969 24.6563C146.207 24.8604 146.39 25.1 146.519 25.375C146.652 25.6458 146.719 25.9375 146.719 26.25C146.719 26.5625 146.652 26.8562 146.519 27.1312C146.39 27.4021 146.207 27.6417 145.969 27.85C145.732 28.0542 145.452 28.2146 145.132 28.3312C144.811 28.4437 144.459 28.5 144.075 28.5ZM144.075 27.8437C144.363 27.8437 144.625 27.8042 144.863 27.725C145.1 27.6417 145.307 27.5292 145.482 27.3875C145.657 27.2417 145.792 27.0729 145.888 26.8813C145.984 26.6854 146.032 26.475 146.032 26.25C146.032 26.025 145.984 25.8167 145.888 25.625C145.792 25.4292 145.657 25.2604 145.482 25.1188C145.307 24.9729 145.1 24.8604 144.863 24.7812C144.625 24.6979 144.363 24.6563 144.075 24.6563C143.788 24.6563 143.523 24.6979 143.282 24.7812C143.044 24.8604 142.838 24.9729 142.663 25.1188C142.488 25.2604 142.352 25.4292 142.257 25.625C142.165 25.8167 142.119 26.025 142.119 26.25C142.119 26.475 142.165 26.6854 142.257 26.8813C142.352 27.0729 142.488 27.2417 142.663 27.3875C142.838 27.5292 143.044 27.6417 143.282 27.725C143.523 27.8042 143.788 27.8437 144.075 27.8437Z" fill="#1E1E1E"/>
<path d="M144.075 28.5C143.688 28.5 143.334 28.4437 143.013 28.3312C142.692 28.2146 142.413 28.0542 142.175 27.85C141.938 27.6417 141.755 27.4021 141.625 27.1312C141.496 26.8562 141.432 26.5625 141.432 26.25C141.432 25.9375 141.496 25.6458 141.625 25.375C141.755 25.1 141.938 24.8604 142.175 24.6563C142.413 24.4479 142.692 24.2875 143.013 24.175C143.334 24.0583 143.688 24 144.075 24C144.459 24 144.811 24.0583 145.132 24.175C145.452 24.2875 145.732 24.4479 145.969 24.6563C146.207 24.8604 146.39 25.1 146.519 25.375C146.652 25.6458 146.719 25.9375 146.719 26.25C146.719 26.5625 146.652 26.8562 146.519 27.1312C146.39 27.4021 146.207 27.6417 145.969 27.85C145.732 28.0542 145.452 28.2146 145.132 28.3312C144.811 28.4437 144.459 28.5 144.075 28.5ZM144.075 27.8437C144.363 27.8437 144.625 27.8042 144.863 27.725C145.1 27.6417 145.307 27.5292 145.482 27.3875C145.657 27.2417 145.792 27.0729 145.888 26.8813C145.984 26.6854 146.032 26.475 146.032 26.25C146.032 26.025 145.984 25.8167 145.888 25.625C145.792 25.4292 145.657 25.2604 145.482 25.1188C145.307 24.9729 145.1 24.8604 144.863 24.7812C144.625 24.6979 144.363 24.6563 144.075 24.6563C143.788 24.6563 143.523 24.6979 143.282 24.7812C143.044 24.8604 142.838 24.9729 142.663 25.1188C142.488 25.2604 142.352 25.4292 142.257 25.625C142.165 25.8167 142.119 26.025 142.119 26.25C142.119 26.475 142.165 26.6854 142.257 26.8813C142.352 27.0729 142.488 27.2417 142.663 27.3875C142.838 27.5292 143.044 27.6417 143.282 27.725C143.523 27.8042 143.788 27.8437 144.075 27.8437Z" fill="#1E1E1E"/>
<path d="M137.567 28.4375V24.0625H138.242V28.4375H137.567ZM133.836 28.4375V24.0625H134.511V28.4375H133.836ZM134.13 26.6063L134.136 25.9563H137.867V26.6063H134.13Z" fill="#1E1E1E"/>
<path d="M137.567 28.4375V24.0625H138.242V28.4375H137.567ZM133.836 28.4375V24.0625H134.511V28.4375H133.836ZM134.13 26.6063L134.136 25.9563H137.867V26.6063H134.13Z" fill="#1E1E1E"/>
<path d="M137.567 28.4375V24.0625H138.242V28.4375H137.567ZM133.836 28.4375V24.0625H134.511V28.4375H133.836ZM134.13 26.6063L134.136 25.9563H137.867V26.6063H134.13Z" fill="#1E1E1E"/>
<path d="M122.535 28.4375V24.0625H126.166V24.7125H123.21V27.7875H126.166V28.4375H122.535ZM122.904 26.5188V25.8688H125.823V26.5188H122.904Z" fill="#1E1E1E"/>
<path d="M122.535 28.4375V24.0625H126.166V24.7125H123.21V27.7875H126.166V28.4375H122.535ZM122.904 26.5188V25.8688H125.823V26.5188H122.904Z" fill="#1E1E1E"/>
<path d="M122.535 28.4375V24.0625H126.166V24.7125H123.21V27.7875H126.166V28.4375H122.535ZM122.904 26.5188V25.8688H125.823V26.5188H122.904Z" fill="#1E1E1E"/>
<path d="M114.682 28.4375V24.0625H116.894C117.294 24.0625 117.646 24.1208 117.95 24.2375C118.259 24.3542 118.517 24.5146 118.725 24.7188C118.934 24.9187 119.09 25.15 119.194 25.4125C119.298 25.675 119.35 25.9542 119.35 26.25C119.35 26.55 119.298 26.8333 119.194 27.1C119.09 27.3625 118.934 27.5938 118.725 27.7938C118.517 27.9938 118.259 28.1521 117.95 28.2687C117.646 28.3812 117.294 28.4375 116.894 28.4375H114.682ZM115.357 27.8563L115.338 27.7875H116.863C117.175 27.7875 117.442 27.7479 117.663 27.6688C117.888 27.5896 118.071 27.4792 118.213 27.3375C118.355 27.1958 118.459 27.0333 118.525 26.85C118.596 26.6625 118.632 26.4625 118.632 26.25C118.632 26.0417 118.596 25.8458 118.525 25.6625C118.459 25.4792 118.355 25.3167 118.213 25.175C118.071 25.0292 117.888 24.9167 117.663 24.8375C117.442 24.7542 117.175 24.7125 116.863 24.7125H115.319L115.357 24.6563V27.8563Z" fill="#1E1E1E"/>
<path d="M114.682 28.4375V24.0625H116.894C117.294 24.0625 117.646 24.1208 117.95 24.2375C118.259 24.3542 118.517 24.5146 118.725 24.7188C118.934 24.9187 119.09 25.15 119.194 25.4125C119.298 25.675 119.35 25.9542 119.35 26.25C119.35 26.55 119.298 26.8333 119.194 27.1C119.09 27.3625 118.934 27.5938 118.725 27.7938C118.517 27.9938 118.259 28.1521 117.95 28.2687C117.646 28.3812 117.294 28.4375 116.894 28.4375H114.682ZM115.357 27.8563L115.338 27.7875H116.863C117.175 27.7875 117.442 27.7479 117.663 27.6688C117.888 27.5896 118.071 27.4792 118.213 27.3375C118.355 27.1958 118.459 27.0333 118.525 26.85C118.596 26.6625 118.632 26.4625 118.632 26.25C118.632 26.0417 118.596 25.8458 118.525 25.6625C118.459 25.4792 118.355 25.3167 118.213 25.175C118.071 25.0292 117.888 24.9167 117.663 24.8375C117.442 24.7542 117.175 24.7125 116.863 24.7125H115.319L115.357 24.6563V27.8563Z" fill="#1E1E1E"/>
<path d="M114.682 28.4375V24.0625H116.894C117.294 24.0625 117.646 24.1208 117.95 24.2375C118.259 24.3542 118.517 24.5146 118.725 24.7188C118.934 24.9187 119.09 25.15 119.194 25.4125C119.298 25.675 119.35 25.9542 119.35 26.25C119.35 26.55 119.298 26.8333 119.194 27.1C119.09 27.3625 118.934 27.5938 118.725 27.7938C118.517 27.9938 118.259 28.1521 117.95 28.2687C117.646 28.3812 117.294 28.4375 116.894 28.4375H114.682ZM115.357 27.8563L115.338 27.7875H116.863C117.175 27.7875 117.442 27.7479 117.663 27.6688C117.888 27.5896 118.071 27.4792 118.213 27.3375C118.355 27.1958 118.459 27.0333 118.525 26.85C118.596 26.6625 118.632 26.4625 118.632 26.25C118.632 26.0417 118.596 25.8458 118.525 25.6625C118.459 25.4792 118.355 25.3167 118.213 25.175C118.071 25.0292 117.888 24.9167 117.663 24.8375C117.442 24.7542 117.175 24.7125 116.863 24.7125H115.319L115.357 24.6563V27.8563Z" fill="#1E1E1E"/>
<path d="M105.157 28.5C104.845 28.5 104.555 28.4687 104.288 28.4062C104.026 28.3437 103.784 28.25 103.563 28.125C103.347 28 103.149 27.8417 102.97 27.65L103.395 27.0875C103.666 27.3667 103.941 27.5708 104.22 27.7C104.503 27.8292 104.818 27.8938 105.163 27.8938C105.38 27.8938 105.588 27.8688 105.788 27.8188C105.988 27.7646 106.153 27.6854 106.282 27.5813C106.411 27.4729 106.476 27.3375 106.476 27.175C106.476 27.0708 106.441 26.9854 106.37 26.9187C106.299 26.8521 106.205 26.7979 106.088 26.7562C105.976 26.7146 105.853 26.6813 105.72 26.6563C105.586 26.6313 105.457 26.6125 105.332 26.6C105.211 26.5875 105.109 26.5771 105.026 26.5687C104.747 26.5312 104.493 26.4812 104.263 26.4187C104.038 26.3521 103.845 26.2688 103.682 26.1688C103.524 26.0688 103.401 25.9458 103.313 25.8C103.23 25.6542 103.188 25.4854 103.188 25.2938C103.188 25.0896 103.236 24.9083 103.332 24.75C103.432 24.5875 103.57 24.4521 103.745 24.3437C103.924 24.2312 104.13 24.1458 104.363 24.0875C104.601 24.0292 104.857 24 105.132 24C105.424 24 105.691 24.0292 105.932 24.0875C106.174 24.1458 106.388 24.2333 106.576 24.35C106.768 24.4625 106.926 24.6021 107.051 24.7688L106.601 25.2625C106.484 25.1208 106.349 25.0021 106.195 24.9063C106.041 24.8063 105.872 24.7313 105.688 24.6813C105.509 24.6313 105.318 24.6062 105.113 24.6062C104.888 24.6062 104.686 24.6313 104.507 24.6813C104.328 24.7313 104.186 24.8021 104.082 24.8938C103.978 24.9813 103.926 25.0896 103.926 25.2188C103.926 25.3313 103.957 25.4271 104.02 25.5063C104.086 25.5854 104.178 25.6521 104.295 25.7063C104.411 25.7563 104.551 25.7979 104.713 25.8313C104.88 25.8646 105.063 25.8938 105.263 25.9187C105.513 25.9479 105.755 25.9854 105.988 26.0312C106.222 26.0771 106.43 26.1417 106.613 26.225C106.797 26.3042 106.943 26.4125 107.051 26.55C107.159 26.6875 107.213 26.8667 107.213 27.0875C107.213 27.3708 107.128 27.6188 106.957 27.8313C106.786 28.0438 106.547 28.2083 106.238 28.325C105.934 28.4417 105.574 28.5 105.157 28.5Z" fill="#1E1E1E"/>
<path d="M105.157 28.5C104.845 28.5 104.555 28.4687 104.288 28.4062C104.026 28.3437 103.784 28.25 103.563 28.125C103.347 28 103.149 27.8417 102.97 27.65L103.395 27.0875C103.666 27.3667 103.941 27.5708 104.22 27.7C104.503 27.8292 104.818 27.8938 105.163 27.8938C105.38 27.8938 105.588 27.8688 105.788 27.8188C105.988 27.7646 106.153 27.6854 106.282 27.5813C106.411 27.4729 106.476 27.3375 106.476 27.175C106.476 27.0708 106.441 26.9854 106.37 26.9187C106.299 26.8521 106.205 26.7979 106.088 26.7562C105.976 26.7146 105.853 26.6813 105.72 26.6563C105.586 26.6313 105.457 26.6125 105.332 26.6C105.211 26.5875 105.109 26.5771 105.026 26.5687C104.747 26.5312 104.493 26.4812 104.263 26.4187C104.038 26.3521 103.845 26.2688 103.682 26.1688C103.524 26.0688 103.401 25.9458 103.313 25.8C103.23 25.6542 103.188 25.4854 103.188 25.2938C103.188 25.0896 103.236 24.9083 103.332 24.75C103.432 24.5875 103.57 24.4521 103.745 24.3437C103.924 24.2312 104.13 24.1458 104.363 24.0875C104.601 24.0292 104.857 24 105.132 24C105.424 24 105.691 24.0292 105.932 24.0875C106.174 24.1458 106.388 24.2333 106.576 24.35C106.768 24.4625 106.926 24.6021 107.051 24.7688L106.601 25.2625C106.484 25.1208 106.349 25.0021 106.195 24.9063C106.041 24.8063 105.872 24.7313 105.688 24.6813C105.509 24.6313 105.318 24.6062 105.113 24.6062C104.888 24.6062 104.686 24.6313 104.507 24.6813C104.328 24.7313 104.186 24.8021 104.082 24.8938C103.978 24.9813 103.926 25.0896 103.926 25.2188C103.926 25.3313 103.957 25.4271 104.02 25.5063C104.086 25.5854 104.178 25.6521 104.295 25.7063C104.411 25.7563 104.551 25.7979 104.713 25.8313C104.88 25.8646 105.063 25.8938 105.263 25.9187C105.513 25.9479 105.755 25.9854 105.988 26.0312C106.222 26.0771 106.43 26.1417 106.613 26.225C106.797 26.3042 106.943 26.4125 107.051 26.55C107.159 26.6875 107.213 26.8667 107.213 27.0875C107.213 27.3708 107.128 27.6188 106.957 27.8313C106.786 28.0438 106.547 28.2083 106.238 28.325C105.934 28.4417 105.574 28.5 105.157 28.5Z" fill="#1E1E1E"/>
<path d="M105.157 28.5C104.845 28.5 104.555 28.4687 104.288 28.4062C104.026 28.3437 103.784 28.25 103.563 28.125C103.347 28 103.149 27.8417 102.97 27.65L103.395 27.0875C103.666 27.3667 103.941 27.5708 104.22 27.7C104.503 27.8292 104.818 27.8938 105.163 27.8938C105.38 27.8938 105.588 27.8688 105.788 27.8188C105.988 27.7646 106.153 27.6854 106.282 27.5813C106.411 27.4729 106.476 27.3375 106.476 27.175C106.476 27.0708 106.441 26.9854 106.37 26.9187C106.299 26.8521 106.205 26.7979 106.088 26.7562C105.976 26.7146 105.853 26.6813 105.72 26.6563C105.586 26.6313 105.457 26.6125 105.332 26.6C105.211 26.5875 105.109 26.5771 105.026 26.5687C104.747 26.5312 104.493 26.4812 104.263 26.4187C104.038 26.3521 103.845 26.2688 103.682 26.1688C103.524 26.0688 103.401 25.9458 103.313 25.8C103.23 25.6542 103.188 25.4854 103.188 25.2938C103.188 25.0896 103.236 24.9083 103.332 24.75C103.432 24.5875 103.57 24.4521 103.745 24.3437C103.924 24.2312 104.13 24.1458 104.363 24.0875C104.601 24.0292 104.857 24 105.132 24C105.424 24 105.691 24.0292 105.932 24.0875C106.174 24.1458 106.388 24.2333 106.576 24.35C106.768 24.4625 106.926 24.6021 107.051 24.7688L106.601 25.2625C106.484 25.1208 106.349 25.0021 106.195 24.9063C106.041 24.8063 105.872 24.7313 105.688 24.6813C105.509 24.6313 105.318 24.6062 105.113 24.6062C104.888 24.6062 104.686 24.6313 104.507 24.6813C104.328 24.7313 104.186 24.8021 104.082 24.8938C103.978 24.9813 103.926 25.0896 103.926 25.2188C103.926 25.3313 103.957 25.4271 104.02 25.5063C104.086 25.5854 104.178 25.6521 104.295 25.7063C104.411 25.7563 104.551 25.7979 104.713 25.8313C104.88 25.8646 105.063 25.8938 105.263 25.9187C105.513 25.9479 105.755 25.9854 105.988 26.0312C106.222 26.0771 106.43 26.1417 106.613 26.225C106.797 26.3042 106.943 26.4125 107.051 26.55C107.159 26.6875 107.213 26.8667 107.213 27.0875C107.213 27.3708 107.128 27.6188 106.957 27.8313C106.786 28.0438 106.547 28.2083 106.238 28.325C105.934 28.4417 105.574 28.5 105.157 28.5Z" fill="#1E1E1E"/>
<path d="M95.293 28.4375L97.4305 24.0625H98.218L100.343 28.4375H99.5992L98.1305 25.425C98.093 25.3458 98.0555 25.2687 98.018 25.1937C97.9805 25.1188 97.943 25.0438 97.9055 24.9688C97.8721 24.8938 97.8388 24.8146 97.8055 24.7312C97.7721 24.6479 97.7388 24.5563 97.7055 24.4563L97.9055 24.45C97.868 24.55 97.8305 24.6438 97.793 24.7312C97.7596 24.8188 97.7242 24.9021 97.6867 24.9812C97.6492 25.0604 97.6117 25.1396 97.5742 25.2188C97.5367 25.2938 97.4992 25.3708 97.4617 25.45L96.0055 28.4375H95.293ZM96.2242 27.4125L96.493 26.7625H99.0867L99.193 27.4125H96.2242Z" fill="#1E1E1E"/>
<path d="M95.293 28.4375L97.4305 24.0625H98.218L100.343 28.4375H99.5992L98.1305 25.425C98.093 25.3458 98.0555 25.2687 98.018 25.1937C97.9805 25.1188 97.943 25.0438 97.9055 24.9688C97.8721 24.8938 97.8388 24.8146 97.8055 24.7312C97.7721 24.6479 97.7388 24.5563 97.7055 24.4563L97.9055 24.45C97.868 24.55 97.8305 24.6438 97.793 24.7312C97.7596 24.8188 97.7242 24.9021 97.6867 24.9812C97.6492 25.0604 97.6117 25.1396 97.5742 25.2188C97.5367 25.2938 97.4992 25.3708 97.4617 25.45L96.0055 28.4375H95.293ZM96.2242 27.4125L96.493 26.7625H99.0867L99.193 27.4125H96.2242Z" fill="#1E1E1E"/>
<path d="M95.293 28.4375L97.4305 24.0625H98.218L100.343 28.4375H99.5992L98.1305 25.425C98.093 25.3458 98.0555 25.2687 98.018 25.1937C97.9805 25.1188 97.943 25.0438 97.9055 24.9688C97.8721 24.8938 97.8388 24.8146 97.8055 24.7312C97.7721 24.6479 97.7388 24.5563 97.7055 24.4563L97.9055 24.45C97.868 24.55 97.8305 24.6438 97.793 24.7312C97.7596 24.8188 97.7242 24.9021 97.6867 24.9812C97.6492 25.0604 97.6117 25.1396 97.5742 25.2188C97.5367 25.2938 97.4992 25.3708 97.4617 25.45L96.0055 28.4375H95.293ZM96.2242 27.4125L96.493 26.7625H99.0867L99.193 27.4125H96.2242Z" fill="#1E1E1E"/>
<path d="M87.5996 28.4375V24.0625H88.2684L91.8184 27.6438L91.7809 27.7C91.76 27.575 91.7413 27.4417 91.7246 27.3C91.7121 27.1542 91.7017 27.0063 91.6934 26.8563C91.685 26.7021 91.6767 26.5479 91.6684 26.3938C91.6642 26.2354 91.66 26.0813 91.6559 25.9313C91.6559 25.7813 91.6559 25.6375 91.6559 25.5V24.0625H92.3309V28.4375H91.6496L88.1434 24.9875L88.1496 24.9C88.1579 24.975 88.1663 25.0646 88.1746 25.1688C88.1829 25.2729 88.1934 25.3854 88.2059 25.5063C88.2184 25.6271 88.2288 25.7521 88.2371 25.8813C88.2496 26.0063 88.2579 26.1333 88.2621 26.2625C88.2704 26.3875 88.2746 26.5062 88.2746 26.6187V28.4375H87.5996Z" fill="#1E1E1E"/>
<path d="M87.5996 28.4375V24.0625H88.2684L91.8184 27.6438L91.7809 27.7C91.76 27.575 91.7413 27.4417 91.7246 27.3C91.7121 27.1542 91.7017 27.0063 91.6934 26.8563C91.685 26.7021 91.6767 26.5479 91.6684 26.3938C91.6642 26.2354 91.66 26.0813 91.6559 25.9313C91.6559 25.7813 91.6559 25.6375 91.6559 25.5V24.0625H92.3309V28.4375H91.6496L88.1434 24.9875L88.1496 24.9C88.1579 24.975 88.1663 25.0646 88.1746 25.1688C88.1829 25.2729 88.1934 25.3854 88.2059 25.5063C88.2184 25.6271 88.2288 25.7521 88.2371 25.8813C88.2496 26.0063 88.2579 26.1333 88.2621 26.2625C88.2704 26.3875 88.2746 26.5062 88.2746 26.6187V28.4375H87.5996Z" fill="#1E1E1E"/>
<path d="M87.5996 28.4375V24.0625H88.2684L91.8184 27.6438L91.7809 27.7C91.76 27.575 91.7413 27.4417 91.7246 27.3C91.7121 27.1542 91.7017 27.0063 91.6934 26.8563C91.685 26.7021 91.6767 26.5479 91.6684 26.3938C91.6642 26.2354 91.66 26.0813 91.6559 25.9313C91.6559 25.7813 91.6559 25.6375 91.6559 25.5V24.0625H92.3309V28.4375H91.6496L88.1434 24.9875L88.1496 24.9C88.1579 24.975 88.1663 25.0646 88.1746 25.1688C88.1829 25.2729 88.1934 25.3854 88.2059 25.5063C88.2184 25.6271 88.2288 25.7521 88.2371 25.8813C88.2496 26.0063 88.2579 26.1333 88.2621 26.2625C88.2704 26.3875 88.2746 26.5062 88.2746 26.6187V28.4375H87.5996Z" fill="#1E1E1E"/>
<path d="M81.0654 28.4375V27.7687H82.2092V24.7312H81.0654V24.0625H84.0279V24.7312H82.8842V27.7687H84.0279V28.4375H81.0654Z" fill="#1E1E1E"/>
<path d="M81.0654 28.4375V27.7687H82.2092V24.7312H81.0654V24.0625H84.0279V24.7312H82.8842V27.7687H84.0279V28.4375H81.0654Z" fill="#1E1E1E"/>
<path d="M81.0654 28.4375V27.7687H82.2092V24.7312H81.0654V24.0625H84.0279V24.7312H82.8842V27.7687H84.0279V28.4375H81.0654Z" fill="#1E1E1E"/>
<path d="M75.818 28.5004C75.468 28.5004 75.1388 28.4483 74.8305 28.3441C74.5263 28.2358 74.2576 28.0837 74.0242 27.8879C73.7951 27.6879 73.6159 27.4504 73.4867 27.1754C73.3576 26.8962 73.293 26.5879 73.293 26.2504C73.293 25.9296 73.3596 25.6337 73.493 25.3629C73.6305 25.0921 73.8159 24.8566 74.0492 24.6566C74.2826 24.4566 74.5513 24.3025 74.8555 24.1941C75.1596 24.0816 75.4805 24.0254 75.818 24.0254C76.1013 24.0254 76.3721 24.0629 76.6305 24.1379C76.8888 24.2087 77.1221 24.3004 77.3305 24.4129C77.543 24.5212 77.7117 24.6358 77.8367 24.7566L77.4367 25.3254C77.2867 25.2004 77.1263 25.09 76.9555 24.9941C76.7846 24.8983 76.5992 24.8233 76.3992 24.7691C76.2034 24.715 75.9888 24.6879 75.7555 24.6879C75.5346 24.6879 75.318 24.7254 75.1055 24.8004C74.8971 24.8712 74.7076 24.9754 74.5367 25.1129C74.3659 25.2462 74.2305 25.4108 74.1305 25.6066C74.0305 25.7983 73.9805 26.0129 73.9805 26.2504C73.9805 26.5129 74.0326 26.7441 74.1367 26.9441C74.2409 27.14 74.3826 27.3046 74.5617 27.4379C74.7409 27.5712 74.943 27.6733 75.168 27.7441C75.393 27.8108 75.6263 27.8441 75.868 27.8441C76.118 27.8441 76.3409 27.8129 76.5367 27.7504C76.7326 27.6837 76.9076 27.6025 77.0617 27.5066C77.2159 27.4108 77.3555 27.3171 77.4805 27.2254L77.8055 27.7879C77.6888 27.8837 77.5284 27.9879 77.3242 28.1004C77.1242 28.2129 76.8951 28.3087 76.6367 28.3879C76.3826 28.4629 76.1096 28.5004 75.818 28.5004Z" fill="#1E1E1E"/>
<path d="M75.818 28.5004C75.468 28.5004 75.1388 28.4483 74.8305 28.3441C74.5263 28.2358 74.2576 28.0837 74.0242 27.8879C73.7951 27.6879 73.6159 27.4504 73.4867 27.1754C73.3576 26.8962 73.293 26.5879 73.293 26.2504C73.293 25.9296 73.3596 25.6337 73.493 25.3629C73.6305 25.0921 73.8159 24.8566 74.0492 24.6566C74.2826 24.4566 74.5513 24.3025 74.8555 24.1941C75.1596 24.0816 75.4805 24.0254 75.818 24.0254C76.1013 24.0254 76.3721 24.0629 76.6305 24.1379C76.8888 24.2087 77.1221 24.3004 77.3305 24.4129C77.543 24.5212 77.7117 24.6358 77.8367 24.7566L77.4367 25.3254C77.2867 25.2004 77.1263 25.09 76.9555 24.9941C76.7846 24.8983 76.5992 24.8233 76.3992 24.7691C76.2034 24.715 75.9888 24.6879 75.7555 24.6879C75.5346 24.6879 75.318 24.7254 75.1055 24.8004C74.8971 24.8712 74.7076 24.9754 74.5367 25.1129C74.3659 25.2462 74.2305 25.4108 74.1305 25.6066C74.0305 25.7983 73.9805 26.0129 73.9805 26.2504C73.9805 26.5129 74.0326 26.7441 74.1367 26.9441C74.2409 27.14 74.3826 27.3046 74.5617 27.4379C74.7409 27.5712 74.943 27.6733 75.168 27.7441C75.393 27.8108 75.6263 27.8441 75.868 27.8441C76.118 27.8441 76.3409 27.8129 76.5367 27.7504C76.7326 27.6837 76.9076 27.6025 77.0617 27.5066C77.2159 27.4108 77.3555 27.3171 77.4805 27.2254L77.8055 27.7879C77.6888 27.8837 77.5284 27.9879 77.3242 28.1004C77.1242 28.2129 76.8951 28.3087 76.6367 28.3879C76.3826 28.4629 76.1096 28.5004 75.818 28.5004Z" fill="#1E1E1E"/>
<path d="M75.818 28.5004C75.468 28.5004 75.1388 28.4483 74.8305 28.3441C74.5263 28.2358 74.2576 28.0837 74.0242 27.8879C73.7951 27.6879 73.6159 27.4504 73.4867 27.1754C73.3576 26.8962 73.293 26.5879 73.293 26.2504C73.293 25.9296 73.3596 25.6337 73.493 25.3629C73.6305 25.0921 73.8159 24.8566 74.0492 24.6566C74.2826 24.4566 74.5513 24.3025 74.8555 24.1941C75.1596 24.0816 75.4805 24.0254 75.818 24.0254C76.1013 24.0254 76.3721 24.0629 76.6305 24.1379C76.8888 24.2087 77.1221 24.3004 77.3305 24.4129C77.543 24.5212 77.7117 24.6358 77.8367 24.7566L77.4367 25.3254C77.2867 25.2004 77.1263 25.09 76.9555 24.9941C76.7846 24.8983 76.5992 24.8233 76.3992 24.7691C76.2034 24.715 75.9888 24.6879 75.7555 24.6879C75.5346 24.6879 75.318 24.7254 75.1055 24.8004C74.8971 24.8712 74.7076 24.9754 74.5367 25.1129C74.3659 25.2462 74.2305 25.4108 74.1305 25.6066C74.0305 25.7983 73.9805 26.0129 73.9805 26.2504C73.9805 26.5129 74.0326 26.7441 74.1367 26.9441C74.2409 27.14 74.3826 27.3046 74.5617 27.4379C74.7409 27.5712 74.943 27.6733 75.168 27.7441C75.393 27.8108 75.6263 27.8441 75.868 27.8441C76.118 27.8441 76.3409 27.8129 76.5367 27.7504C76.7326 27.6837 76.9076 27.6025 77.0617 27.5066C77.2159 27.4108 77.3555 27.3171 77.4805 27.2254L77.8055 27.7879C77.6888 27.8837 77.5284 27.9879 77.3242 28.1004C77.1242 28.2129 76.8951 28.3087 76.6367 28.3879C76.3826 28.4629 76.1096 28.5004 75.818 28.5004Z" fill="#1E1E1E"/>
<path d="M68.3906 28.5C68.0781 28.5 67.7885 28.4687 67.5219 28.4062C67.2594 28.3437 67.0177 28.25 66.7969 28.125C66.5802 28 66.3823 27.8417 66.2031 27.65L66.6281 27.0875C66.899 27.3667 67.174 27.5708 67.4531 27.7C67.7365 27.8292 68.051 27.8938 68.3969 27.8938C68.6135 27.8938 68.8219 27.8688 69.0219 27.8188C69.2219 27.7646 69.3865 27.6854 69.5156 27.5813C69.6448 27.4729 69.7094 27.3375 69.7094 27.175C69.7094 27.0708 69.674 26.9854 69.6031 26.9187C69.5323 26.8521 69.4385 26.7979 69.3219 26.7562C69.2094 26.7146 69.0865 26.6813 68.9531 26.6563C68.8198 26.6313 68.6906 26.6125 68.5656 26.6C68.4448 26.5875 68.3427 26.5771 68.2594 26.5687C67.9802 26.5312 67.726 26.4812 67.4969 26.4187C67.2719 26.3521 67.0781 26.2688 66.9156 26.1688C66.7573 26.0688 66.6344 25.9458 66.5469 25.8C66.4635 25.6542 66.4219 25.4854 66.4219 25.2938C66.4219 25.0896 66.4698 24.9083 66.5656 24.75C66.6656 24.5875 66.8031 24.4521 66.9781 24.3437C67.1573 24.2312 67.3635 24.1458 67.5969 24.0875C67.8344 24.0292 68.0906 24 68.3656 24C68.6573 24 68.924 24.0292 69.1656 24.0875C69.4073 24.1458 69.6219 24.2333 69.8094 24.35C70.001 24.4625 70.1594 24.6021 70.2844 24.7688L69.8344 25.2625C69.7177 25.1208 69.5823 25.0021 69.4281 24.9063C69.274 24.8063 69.1052 24.7313 68.9219 24.6813C68.7427 24.6313 68.551 24.6062 68.3469 24.6062C68.1219 24.6062 67.9198 24.6313 67.7406 24.6813C67.5615 24.7313 67.4198 24.8021 67.3156 24.8938C67.2115 24.9813 67.1594 25.0896 67.1594 25.2188C67.1594 25.3313 67.1906 25.4271 67.2531 25.5063C67.3198 25.5854 67.4115 25.6521 67.5281 25.7063C67.6448 25.7563 67.7844 25.7979 67.9469 25.8313C68.1135 25.8646 68.2969 25.8938 68.4969 25.9187C68.7469 25.9479 68.9885 25.9854 69.2219 26.0312C69.4552 26.0771 69.6635 26.1417 69.8469 26.225C70.0302 26.3042 70.176 26.4125 70.2844 26.55C70.3927 26.6875 70.4469 26.8667 70.4469 27.0875C70.4469 27.3708 70.3615 27.6188 70.1906 27.8313C70.0198 28.0438 69.7802 28.2083 69.4719 28.325C69.1677 28.4417 68.8073 28.5 68.3906 28.5Z" fill="#1E1E1E"/>
<path d="M68.3906 28.5C68.0781 28.5 67.7885 28.4687 67.5219 28.4062C67.2594 28.3437 67.0177 28.25 66.7969 28.125C66.5802 28 66.3823 27.8417 66.2031 27.65L66.6281 27.0875C66.899 27.3667 67.174 27.5708 67.4531 27.7C67.7365 27.8292 68.051 27.8938 68.3969 27.8938C68.6135 27.8938 68.8219 27.8688 69.0219 27.8188C69.2219 27.7646 69.3865 27.6854 69.5156 27.5813C69.6448 27.4729 69.7094 27.3375 69.7094 27.175C69.7094 27.0708 69.674 26.9854 69.6031 26.9187C69.5323 26.8521 69.4385 26.7979 69.3219 26.7562C69.2094 26.7146 69.0865 26.6813 68.9531 26.6563C68.8198 26.6313 68.6906 26.6125 68.5656 26.6C68.4448 26.5875 68.3427 26.5771 68.2594 26.5687C67.9802 26.5312 67.726 26.4812 67.4969 26.4187C67.2719 26.3521 67.0781 26.2688 66.9156 26.1688C66.7573 26.0688 66.6344 25.9458 66.5469 25.8C66.4635 25.6542 66.4219 25.4854 66.4219 25.2938C66.4219 25.0896 66.4698 24.9083 66.5656 24.75C66.6656 24.5875 66.8031 24.4521 66.9781 24.3437C67.1573 24.2312 67.3635 24.1458 67.5969 24.0875C67.8344 24.0292 68.0906 24 68.3656 24C68.6573 24 68.924 24.0292 69.1656 24.0875C69.4073 24.1458 69.6219 24.2333 69.8094 24.35C70.001 24.4625 70.1594 24.6021 70.2844 24.7688L69.8344 25.2625C69.7177 25.1208 69.5823 25.0021 69.4281 24.9063C69.274 24.8063 69.1052 24.7313 68.9219 24.6813C68.7427 24.6313 68.551 24.6062 68.3469 24.6062C68.1219 24.6062 67.9198 24.6313 67.7406 24.6813C67.5615 24.7313 67.4198 24.8021 67.3156 24.8938C67.2115 24.9813 67.1594 25.0896 67.1594 25.2188C67.1594 25.3313 67.1906 25.4271 67.2531 25.5063C67.3198 25.5854 67.4115 25.6521 67.5281 25.7063C67.6448 25.7563 67.7844 25.7979 67.9469 25.8313C68.1135 25.8646 68.2969 25.8938 68.4969 25.9187C68.7469 25.9479 68.9885 25.9854 69.2219 26.0312C69.4552 26.0771 69.6635 26.1417 69.8469 26.225C70.0302 26.3042 70.176 26.4125 70.2844 26.55C70.3927 26.6875 70.4469 26.8667 70.4469 27.0875C70.4469 27.3708 70.3615 27.6188 70.1906 27.8313C70.0198 28.0438 69.7802 28.2083 69.4719 28.325C69.1677 28.4417 68.8073 28.5 68.3906 28.5Z" fill="#1E1E1E"/>
<path d="M68.3906 28.5C68.0781 28.5 67.7885 28.4687 67.5219 28.4062C67.2594 28.3437 67.0177 28.25 66.7969 28.125C66.5802 28 66.3823 27.8417 66.2031 27.65L66.6281 27.0875C66.899 27.3667 67.174 27.5708 67.4531 27.7C67.7365 27.8292 68.051 27.8938 68.3969 27.8938C68.6135 27.8938 68.8219 27.8688 69.0219 27.8188C69.2219 27.7646 69.3865 27.6854 69.5156 27.5813C69.6448 27.4729 69.7094 27.3375 69.7094 27.175C69.7094 27.0708 69.674 26.9854 69.6031 26.9187C69.5323 26.8521 69.4385 26.7979 69.3219 26.7562C69.2094 26.7146 69.0865 26.6813 68.9531 26.6563C68.8198 26.6313 68.6906 26.6125 68.5656 26.6C68.4448 26.5875 68.3427 26.5771 68.2594 26.5687C67.9802 26.5312 67.726 26.4812 67.4969 26.4187C67.2719 26.3521 67.0781 26.2688 66.9156 26.1688C66.7573 26.0688 66.6344 25.9458 66.5469 25.8C66.4635 25.6542 66.4219 25.4854 66.4219 25.2938C66.4219 25.0896 66.4698 24.9083 66.5656 24.75C66.6656 24.5875 66.8031 24.4521 66.9781 24.3437C67.1573 24.2312 67.3635 24.1458 67.5969 24.0875C67.8344 24.0292 68.0906 24 68.3656 24C68.6573 24 68.924 24.0292 69.1656 24.0875C69.4073 24.1458 69.6219 24.2333 69.8094 24.35C70.001 24.4625 70.1594 24.6021 70.2844 24.7688L69.8344 25.2625C69.7177 25.1208 69.5823 25.0021 69.4281 24.9063C69.274 24.8063 69.1052 24.7313 68.9219 24.6813C68.7427 24.6313 68.551 24.6062 68.3469 24.6062C68.1219 24.6062 67.9198 24.6313 67.7406 24.6813C67.5615 24.7313 67.4198 24.8021 67.3156 24.8938C67.2115 24.9813 67.1594 25.0896 67.1594 25.2188C67.1594 25.3313 67.1906 25.4271 67.2531 25.5063C67.3198 25.5854 67.4115 25.6521 67.5281 25.7063C67.6448 25.7563 67.7844 25.7979 67.9469 25.8313C68.1135 25.8646 68.2969 25.8938 68.4969 25.9187C68.7469 25.9479 68.9885 25.9854 69.2219 26.0312C69.4552 26.0771 69.6635 26.1417 69.8469 26.225C70.0302 26.3042 70.176 26.4125 70.2844 26.55C70.3927 26.6875 70.4469 26.8667 70.4469 27.0875C70.4469 27.3708 70.3615 27.6188 70.1906 27.8313C70.0198 28.0438 69.7802 28.2083 69.4719 28.325C69.1677 28.4417 68.8073 28.5 68.3906 28.5Z" fill="#1E1E1E"/>
<path d="M60.0059 28.4375V27.7687H61.1496V24.7312H60.0059V24.0625H62.9684V24.7312H61.8246V27.7687H62.9684V28.4375H60.0059Z" fill="#1E1E1E"/>
<path d="M60.0059 28.4375V27.7687H61.1496V24.7312H60.0059V24.0625H62.9684V24.7312H61.8246V27.7687H62.9684V28.4375H60.0059Z" fill="#1E1E1E"/>
<path d="M60.0059 28.4375V27.7687H61.1496V24.7312H60.0059V24.0625H62.9684V24.7312H61.8246V27.7687H62.9684V28.4375H60.0059Z" fill="#1E1E1E"/>
<path d="M52.749 28.4375V24.0625H55.3053C55.5636 24.0625 55.799 24.1229 56.0115 24.2438C56.2282 24.3604 56.4011 24.5208 56.5303 24.725C56.6594 24.9292 56.724 25.1563 56.724 25.4063C56.724 25.6688 56.6532 25.9083 56.5115 26.125C56.3699 26.3375 56.1824 26.5083 55.949 26.6375C55.7157 26.7625 55.4594 26.825 55.1803 26.825H53.424V28.4375H52.749ZM53.424 26.175H55.1178C55.2761 26.175 55.4219 26.1396 55.5553 26.0688C55.6928 25.9979 55.8011 25.9042 55.8803 25.7875C55.9636 25.6708 56.0053 25.5438 56.0053 25.4063C56.0053 25.2771 55.9636 25.1604 55.8803 25.0563C55.8011 24.9521 55.6928 24.8688 55.5553 24.8063C55.4219 24.7438 55.2761 24.7125 55.1178 24.7125H53.424V26.175Z" fill="#1E1E1E"/>
<path d="M52.749 28.4375V24.0625H55.3053C55.5636 24.0625 55.799 24.1229 56.0115 24.2438C56.2282 24.3604 56.4011 24.5208 56.5303 24.725C56.6594 24.9292 56.724 25.1563 56.724 25.4063C56.724 25.6688 56.6532 25.9083 56.5115 26.125C56.3699 26.3375 56.1824 26.5083 55.949 26.6375C55.7157 26.7625 55.4594 26.825 55.1803 26.825H53.424V28.4375H52.749ZM53.424 26.175H55.1178C55.2761 26.175 55.4219 26.1396 55.5553 26.0688C55.6928 25.9979 55.8011 25.9042 55.8803 25.7875C55.9636 25.6708 56.0053 25.5438 56.0053 25.4063C56.0053 25.2771 55.9636 25.1604 55.8803 25.0563C55.8011 24.9521 55.6928 24.8688 55.5553 24.8063C55.4219 24.7438 55.2761 24.7125 55.1178 24.7125H53.424V26.175Z" fill="#1E1E1E"/>
<path d="M52.749 28.4375V24.0625H55.3053C55.5636 24.0625 55.799 24.1229 56.0115 24.2438C56.2282 24.3604 56.4011 24.5208 56.5303 24.725C56.6594 24.9292 56.724 25.1563 56.724 25.4063C56.724 25.6688 56.6532 25.9083 56.5115 26.125C56.3699 26.3375 56.1824 26.5083 55.949 26.6375C55.7157 26.7625 55.4594 26.825 55.1803 26.825H53.424V28.4375H52.749ZM53.424 26.175H55.1178C55.2761 26.175 55.4219 26.1396 55.5553 26.0688C55.6928 25.9979 55.8011 25.9042 55.8803 25.7875C55.9636 25.6708 56.0053 25.5438 56.0053 25.4063C56.0053 25.2771 55.9636 25.1604 55.8803 25.0563C55.8011 24.9521 55.6928 24.8688 55.5553 24.8063C55.4219 24.7438 55.2761 24.7125 55.1178 24.7125H53.424V26.175Z" fill="#1E1E1E"/>
<path d="M48.65 26.8564C48.4292 26.8564 48.2646 26.8148 48.1563 26.7314C48.0521 26.6439 48 26.5294 48 26.3877C48 26.271 48.0521 26.1648 48.1563 26.0689C48.2646 25.9689 48.4292 25.9189 48.65 25.9189C48.8708 25.9189 49.0333 25.9627 49.1375 26.0502C49.2458 26.1335 49.3 26.246 49.3 26.3877C49.3 26.5044 49.2458 26.6127 49.1375 26.7127C49.0333 26.8085 48.8708 26.8564 48.65 26.8564Z" fill="#1E1E1E"/>
<path d="M48.65 26.8564C48.4292 26.8564 48.2646 26.8148 48.1563 26.7314C48.0521 26.6439 48 26.5294 48 26.3877C48 26.271 48.0521 26.1648 48.1563 26.0689C48.2646 25.9689 48.4292 25.9189 48.65 25.9189C48.8708 25.9189 49.0333 25.9627 49.1375 26.0502C49.2458 26.1335 49.3 26.246 49.3 26.3877C49.3 26.5044 49.2458 26.6127 49.1375 26.7127C49.0333 26.8085 48.8708 26.8564 48.65 26.8564Z" fill="#1E1E1E"/>
<path d="M48.65 26.8564C48.4292 26.8564 48.2646 26.8148 48.1563 26.7314C48.0521 26.6439 48 26.5294 48 26.3877C48 26.271 48.0521 26.1648 48.1563 26.0689C48.2646 25.9689 48.4292 25.9189 48.65 25.9189C48.8708 25.9189 49.0333 25.9627 49.1375 26.0502C49.2458 26.1335 49.3 26.246 49.3 26.3877C49.3 26.5044 49.2458 26.6127 49.1375 26.7127C49.0333 26.8085 48.8708 26.8564 48.65 26.8564Z" fill="#1E1E1E"/>
</svg>
