<svg width="158" height="127" viewBox="0 0 158 127" fill="none" xmlns="http://www.w3.org/2000/svg">
<g filter="url(#filter0_d_589_416)">
<ellipse cx="5.69057" cy="105.145" rx="1.69057" ry="1.69057" fill="white"/>
<ellipse cx="152.309" cy="105.145" rx="1.69057" ry="1.69057" fill="white"/>
<path d="M135.721 110.066C135.005 110.066 134.341 109.989 133.73 109.835C133.128 109.681 132.574 109.451 132.068 109.143C131.571 108.836 131.118 108.447 130.707 107.975L131.681 106.592C132.302 107.279 132.932 107.781 133.572 108.098C134.222 108.416 134.943 108.575 135.736 108.575C136.232 108.575 136.71 108.513 137.168 108.39C137.627 108.257 138.004 108.062 138.3 107.806C138.596 107.54 138.744 107.207 138.744 106.807C138.744 106.551 138.663 106.341 138.501 106.177C138.338 106.013 138.123 105.88 137.856 105.778C137.598 105.675 137.316 105.593 137.011 105.532C136.705 105.47 136.409 105.424 136.123 105.393C135.846 105.363 135.612 105.337 135.421 105.317C134.781 105.224 134.198 105.101 133.673 104.948C133.157 104.784 132.713 104.579 132.34 104.333C131.977 104.087 131.696 103.785 131.495 103.426C131.304 103.068 131.208 102.653 131.208 102.181C131.208 101.679 131.318 101.234 131.538 100.844C131.767 100.445 132.082 100.112 132.484 99.8453C132.894 99.5686 133.367 99.3586 133.902 99.2152C134.446 99.0717 135.034 99 135.664 99C136.333 99 136.944 99.0717 137.498 99.2152C138.052 99.3586 138.544 99.5738 138.974 99.8607C139.413 100.137 139.776 100.481 140.062 100.89L139.031 102.104C138.763 101.756 138.453 101.464 138.1 101.228C137.746 100.983 137.359 100.798 136.939 100.675C136.528 100.552 136.089 100.491 135.621 100.491C135.105 100.491 134.642 100.552 134.231 100.675C133.821 100.798 133.496 100.972 133.257 101.198C133.018 101.413 132.899 101.679 132.899 101.997C132.899 102.274 132.971 102.509 133.114 102.704C133.267 102.899 133.477 103.062 133.744 103.196C134.012 103.319 134.332 103.421 134.704 103.503C135.086 103.585 135.506 103.657 135.965 103.718C136.538 103.79 137.092 103.882 137.627 103.995C138.162 104.108 138.639 104.266 139.059 104.471C139.48 104.666 139.814 104.932 140.062 105.27C140.311 105.609 140.435 106.049 140.435 106.592C140.435 107.289 140.239 107.899 139.847 108.421C139.456 108.944 138.907 109.348 138.2 109.635C137.503 109.922 136.676 110.066 135.721 110.066Z" fill="white"/>
<path d="M113.825 109.914L118.725 99.1562H120.53L125.401 109.914H123.696L120.33 102.507C120.244 102.312 120.158 102.122 120.072 101.938C119.986 101.754 119.9 101.569 119.814 101.385C119.737 101.2 119.661 101.006 119.585 100.801C119.508 100.596 119.432 100.37 119.355 100.124L119.814 100.109C119.728 100.355 119.642 100.586 119.556 100.801C119.479 101.016 119.398 101.221 119.312 101.415C119.226 101.61 119.14 101.805 119.054 101.999C118.968 102.184 118.883 102.373 118.797 102.568L115.458 109.914H113.825ZM115.96 107.394L116.576 105.796H122.522L122.765 107.394H115.96Z" fill="white"/>
<path d="M96.9043 109.914V99.1562H98.4373L106.575 107.963L106.489 108.101C106.441 107.794 106.398 107.466 106.36 107.117C106.331 106.759 106.307 106.395 106.288 106.026C106.269 105.647 106.25 105.268 106.231 104.889C106.221 104.499 106.212 104.12 106.202 103.752C106.202 103.383 106.202 103.029 106.202 102.691V99.1562H107.75V109.914H106.188L98.1507 101.431L98.165 101.216C98.1841 101.4 98.2033 101.62 98.2224 101.877C98.2415 102.133 98.2653 102.409 98.294 102.706C98.3226 103.004 98.3465 103.311 98.3656 103.629C98.3943 103.936 98.4134 104.248 98.4229 104.566C98.442 104.873 98.4516 105.165 98.4516 105.442V109.914H96.9043Z" fill="white"/>
<path d="M82.6406 109.914V108.27H85.2624V100.801H82.6406V99.1562H89.4315V100.801H86.8097V108.27H89.4315V109.914H82.6406Z" fill="white"/>
<path d="M71.3339 110.068C70.5316 110.068 69.7771 109.939 69.0703 109.683C68.373 109.417 67.757 109.043 67.2221 108.561C66.6968 108.07 66.2861 107.486 65.99 106.809C65.6939 106.123 65.5459 105.365 65.5459 104.535C65.5459 103.746 65.6987 103.018 66.0044 102.352C66.3195 101.686 66.7446 101.108 67.2794 100.616C67.8143 100.124 68.4303 99.7448 69.1276 99.4784C69.8248 99.2018 70.5602 99.0635 71.3339 99.0635C71.9834 99.0635 72.6042 99.1557 73.1964 99.3401C73.7885 99.5143 74.3234 99.7397 74.801 100.016C75.2881 100.283 75.6749 100.564 75.9614 100.862L75.0445 102.26C74.7007 101.953 74.3329 101.681 73.9414 101.446C73.5498 101.21 73.1247 101.026 72.6663 100.892C72.2174 100.759 71.7255 100.693 71.1906 100.693C70.6844 100.693 70.1878 100.785 69.7006 100.969C69.2231 101.143 68.7885 101.4 68.3969 101.738C68.0053 102.066 67.6949 102.47 67.4657 102.952C67.2365 103.423 67.1218 103.951 67.1218 104.535C67.1218 105.18 67.2412 105.749 67.48 106.241C67.7188 106.722 68.0435 107.127 68.4542 107.455C68.8649 107.783 69.3282 108.034 69.8439 108.208C70.3597 108.372 70.8945 108.454 71.4485 108.454C72.0216 108.454 72.5326 108.377 72.9815 108.223C73.4304 108.059 73.8315 107.86 74.1849 107.624C74.5383 107.388 74.8583 107.158 75.1448 106.932L75.8898 108.315C75.6224 108.551 75.2546 108.807 74.7866 109.084C74.3282 109.361 73.8029 109.596 73.2107 109.791C72.6281 109.975 72.0025 110.068 71.3339 110.068Z" fill="white"/>
<path d="M55.0212 110.066C54.3049 110.066 53.641 109.989 53.0298 109.835C52.4281 109.681 51.8741 109.451 51.3679 109.143C50.8712 108.836 50.4175 108.447 50.0068 107.975L50.9811 106.592C51.6019 107.279 52.2323 107.781 52.8722 108.098C53.5217 108.416 54.2428 108.575 55.0355 108.575C55.5322 108.575 56.0097 108.513 56.4682 108.39C56.9266 108.257 57.3039 108.062 57.6 107.806C57.8961 107.54 58.0441 107.207 58.0441 106.807C58.0441 106.551 57.9629 106.341 57.8006 106.177C57.6382 106.013 57.4233 105.88 57.1559 105.778C56.898 105.675 56.6162 105.593 56.3106 105.532C56.005 105.47 55.7089 105.424 55.4223 105.393C55.1454 105.363 54.9113 105.337 54.7203 105.317C54.0804 105.224 53.4978 105.101 52.9725 104.948C52.4567 104.784 52.0126 104.579 51.6401 104.333C51.2771 104.087 50.9954 103.785 50.7948 103.426C50.6038 103.068 50.5083 102.653 50.5083 102.181C50.5083 101.679 50.6181 101.234 50.8378 100.844C51.067 100.445 51.3822 100.112 51.7833 99.8453C52.194 99.5686 52.6668 99.3586 53.2017 99.2152C53.7461 99.0717 54.3335 99 54.9639 99C55.6325 99 56.2437 99.0717 56.7977 99.2152C57.3517 99.3586 57.8435 99.5738 58.2734 99.8607C58.7127 100.137 59.0756 100.481 59.3622 100.89L58.3307 102.104C58.0632 101.756 57.7528 101.464 57.3994 101.228C57.046 100.983 56.6592 100.798 56.239 100.675C55.8283 100.552 55.3889 100.491 54.9209 100.491C54.4051 100.491 53.9419 100.552 53.5312 100.675C53.1205 100.798 52.7958 100.972 52.557 101.198C52.3182 101.413 52.1988 101.679 52.1988 101.997C52.1988 102.274 52.2705 102.509 52.4137 102.704C52.5665 102.899 52.7767 103.062 53.0441 103.196C53.3115 103.319 53.6315 103.421 54.004 103.503C54.386 103.585 54.8063 103.657 55.2647 103.718C55.8378 103.79 56.3918 103.882 56.9266 103.995C57.4615 104.108 57.9391 104.266 58.3593 104.471C58.7796 104.666 59.1138 104.932 59.3622 105.27C59.6105 105.609 59.7347 106.049 59.7347 106.592C59.7347 107.289 59.5389 107.899 59.1473 108.421C58.7557 108.944 58.2065 109.348 57.4997 109.635C56.8025 109.922 55.9763 110.066 55.0212 110.066Z" fill="white"/>
<path d="M36.5186 109.914V108.27H39.1403V100.801H36.5186V99.1562H43.3094V100.801H40.6876V108.27H43.3094V109.914H36.5186Z" fill="white"/>
<path d="M20.5977 109.914V99.1562H26.4573C27.0495 99.1562 27.5891 99.3048 28.0762 99.6019C28.5729 99.8888 28.9692 100.283 29.2653 100.785C29.5614 101.287 29.7094 101.846 29.7094 102.461C29.7094 103.106 29.5471 103.695 29.2223 104.228C28.8976 104.75 28.4678 105.171 27.9329 105.488C27.3981 105.796 26.8107 105.949 26.1707 105.949H22.1449V109.914H20.5977ZM22.1449 104.351H26.0275C26.3904 104.351 26.7247 104.264 27.0303 104.09C27.3455 103.915 27.5939 103.685 27.7753 103.398C27.9664 103.111 28.0619 102.799 28.0619 102.461C28.0619 102.143 27.9664 101.856 27.7753 101.6C27.5939 101.344 27.3455 101.139 27.0303 100.985C26.7247 100.831 26.3904 100.755 26.0275 100.755H22.1449V104.351Z" fill="white"/>
</g>
<g filter="url(#filter1_d_589_416)">
<path d="M62.6468 63.229C82.6624 67.7854 93.6331 56.3131 96.6164 50.0074L96.8198 49.6003L98.0403 50.0074C92.9957 64.0022 76.8178 67.0938 69.3594 66.8903C66.1048 67.0937 57.3175 65.9546 48.2046 59.7709C39.0918 53.5872 36 42.2778 36 34.5481C36.5424 27.2932 39.6614 12.7832 56.5445 6.27411C70.6194 0.847695 85.361 6.40974 91.5312 9.73212L92.3448 21.9367C86.812 7.12835 72.8174 6.27411 65.698 7.08767C57.765 7.9942 42.7126 15.1834 42.7126 34.5481C42.7126 53.9128 56.0021 61.7374 62.6468 63.229Z" fill="white"/>
<path d="M98.0395 28.8162C96.2087 26.3752 90.9201 25.1548 86.8519 25.1548V27.3923H81.1564C80.8309 24.4632 76.5457 23.0529 74.4438 22.7139H87.0553C90.4726 22.7139 94.8527 23.3919 96.6156 23.7309C99.7345 24.4768 106.135 27.7178 106.786 34.7151C107.437 41.7124 102.989 46.4451 100.684 47.9368C104.549 48.6826 112.97 51.5575 115.736 57.0903C118.503 62.6231 117.06 70.9222 115.329 73.77C112.454 78.5 105.5 84.1557 95 84.5C89 84.6967 82.1741 83.5337 76.071 78.8553C71.5048 75.355 69.6987 66.854 69.7665 62.379C72.8583 76.6991 82.1747 80.0757 86.4462 80.686C90.2745 81.2329 93.7691 81.4996 98.8532 80.4825C107.711 78.7106 110.854 70.9416 110.854 66.6506C110.854 62.379 111.047 58.921 107.193 54.8528C103.532 50.988 94.5815 49.2929 90.1065 49.1573C94.3374 48.8318 97.165 46.8082 98.0395 45.2925C101.091 40.0038 100.951 32.6979 98.0395 28.8162Z" fill="white"/>
<rect x="81.1572" y="27.1885" width="5.6955" height="54.1073" fill="white"/>
</g>
<g filter="url(#filter2_d_589_416)">
<path d="M108.209 124.529H107.324L109.784 118.089H110.35L110.337 118.655L108.209 124.529ZM109.983 118.655L109.974 118.089H110.536L113 124.529H112.119L109.983 118.655Z" fill="white"/>
<path d="M105.157 118.089H106.09L103.706 124.529H103.043L103.264 123.556L105.157 118.089ZM103.374 123.556L103.609 124.529H102.945L100.565 118.089H101.499L103.374 123.556Z" fill="white"/>
<path d="M94.5488 124.529H93.6641L96.1235 118.089H96.6897L96.6765 118.655L94.5488 124.529ZM96.3226 118.655L96.3137 118.089H96.8755L99.3394 124.529H98.4591L96.3226 118.655Z" fill="white"/>
<path d="M89.514 118.089C89.9976 118.089 90.4075 118.163 90.7437 118.31C91.0799 118.457 91.335 118.676 91.509 118.965C91.6859 119.251 91.7744 119.603 91.7744 120.022C91.7744 120.317 91.7139 120.585 91.593 120.827C91.475 121.069 91.304 121.275 91.0799 121.446C90.8558 121.617 90.5889 121.744 90.2792 121.827L90.0404 121.92H88.0409L88.0321 121.23H89.5361C89.8428 121.23 90.0979 121.175 90.3013 121.066C90.5048 120.957 90.6567 120.811 90.757 120.628C90.8602 120.445 90.9118 120.243 90.9118 120.022C90.9118 119.647 90.8012 119.348 90.58 119.124C90.3589 118.897 90.0035 118.783 89.514 118.783H88.24V124.529H87.3818V118.089H89.514ZM89.5759 121.61H90.4739L92.0575 124.476V124.529H91.1374L89.5759 121.61Z" fill="white"/>
<path d="M81.081 121.513L81.0722 120.836H82.5496C82.9153 120.836 83.2102 120.744 83.4343 120.562C83.6585 120.379 83.7705 120.124 83.7705 119.796C83.7705 119.442 83.6673 119.186 83.4609 119.027C83.2574 118.864 82.9463 118.783 82.5275 118.783H81.2712V124.529H80.4131V118.089H82.5275C83.1851 118.089 83.6997 118.226 84.0713 118.5C84.4429 118.772 84.6287 119.207 84.6287 119.805C84.6287 120.071 84.5609 120.311 84.4252 120.526C84.2895 120.739 84.0993 120.913 83.8546 121.048C83.6128 121.184 83.3311 121.271 83.0097 121.309L82.7089 121.513H81.081ZM80.7404 124.529L81.2314 123.839H82.6691C83.0731 123.839 83.3857 123.735 83.6069 123.525C83.828 123.316 83.9386 123.034 83.9386 122.68C83.9386 122.442 83.8959 122.235 83.8103 122.061C83.7248 121.884 83.5921 121.749 83.4122 121.654C83.2323 121.56 82.9979 121.513 82.7089 121.513H81.4924L81.5013 120.836H83.1645L83.3459 121.084C83.6555 121.11 83.918 121.197 84.1333 121.345C84.3485 121.492 84.5122 121.681 84.6243 121.911C84.7393 122.141 84.7968 122.394 84.7968 122.672C84.7968 123.276 84.6021 123.738 84.2129 124.056C83.8266 124.372 83.312 124.529 82.6691 124.529H80.7404Z" fill="white"/>
<path d="M71.1855 124.529H70.3008L72.7602 118.089H73.3265L73.3132 118.655L71.1855 124.529ZM72.9593 118.655L72.9505 118.089H73.5122L75.9761 124.529H75.0959L72.9593 118.655Z" fill="white"/>
<path d="M67.0933 124.529H66.244V118.089H67.0933V124.529ZM69.1591 118.783H64.1826V118.089H69.1591V118.783Z" fill="white"/>
<path d="M61.4356 122.901C61.4356 122.698 61.3929 122.525 61.3074 122.384C61.2218 122.242 61.0685 122.114 60.8473 121.999C60.6261 121.884 60.3121 121.767 59.9051 121.649C59.5866 121.558 59.2991 121.455 59.0425 121.34C58.7889 121.222 58.5707 121.088 58.3879 120.937C58.205 120.787 58.0649 120.614 57.9676 120.42C57.8703 120.225 57.8216 120.002 57.8216 119.752C57.8216 119.416 57.9116 119.116 58.0915 118.854C58.2743 118.588 58.5294 118.38 58.8567 118.23C59.1841 118.077 59.5675 118 60.0069 118C60.4934 118 60.9063 118.093 61.2454 118.279C61.5846 118.462 61.8426 118.702 62.0195 119C62.1965 119.295 62.285 119.61 62.285 119.946H61.4224C61.4224 119.705 61.3708 119.489 61.2676 119.301C61.1673 119.112 61.0125 118.964 60.8031 118.858C60.5937 118.749 60.3283 118.694 60.0069 118.694C59.7061 118.694 59.4569 118.74 59.2593 118.832C59.0646 118.923 58.9201 119.047 58.8258 119.203C58.7314 119.359 58.6842 119.538 58.6842 119.738C58.6842 119.918 58.7358 120.079 58.8391 120.221C58.9423 120.359 59.1045 120.485 59.3256 120.597C59.5468 120.709 59.8329 120.815 60.1838 120.915C60.6704 121.051 61.07 121.209 61.3826 121.388C61.6952 121.568 61.9252 121.781 62.0726 122.025C62.223 122.27 62.2982 122.559 62.2982 122.892C62.2982 123.24 62.2053 123.544 62.0195 123.804C61.8338 124.063 61.5728 124.264 61.2366 124.405C60.9004 124.547 60.5052 124.618 60.0511 124.618C59.7532 124.618 59.4598 124.576 59.1708 124.494C58.8848 124.411 58.6238 124.287 58.3879 124.122C58.1549 123.957 57.9676 123.754 57.8261 123.512C57.6875 123.267 57.6182 122.984 57.6182 122.662H58.4763C58.4763 122.884 58.5191 123.074 58.6046 123.233C58.6901 123.392 58.8066 123.523 58.9541 123.627C59.1015 123.73 59.2696 123.807 59.4583 123.857C59.6471 123.904 59.8447 123.927 60.0511 123.927C60.3489 123.927 60.5996 123.886 60.8031 123.804C61.0095 123.718 61.1658 123.599 61.272 123.445C61.3811 123.292 61.4356 123.111 61.4356 122.901Z" fill="white"/>
<path d="M55.406 121.517C55.406 122.16 55.2999 122.713 55.0875 123.175C54.8752 123.638 54.5759 123.995 54.1896 124.246C53.8032 124.494 53.3476 124.618 52.8227 124.618C52.3155 124.618 51.8657 124.494 51.4735 124.246C51.0813 123.995 50.7746 123.638 50.5534 123.175C50.3323 122.713 50.2217 122.16 50.2217 121.517V121.105C50.2217 120.462 50.3308 119.909 50.549 119.446C50.7702 118.981 51.0754 118.624 51.4647 118.376C51.8569 118.125 52.3066 118 52.8139 118C53.3388 118 53.7944 118.125 54.1807 118.376C54.57 118.624 54.8708 118.981 55.0831 119.446C55.2984 119.909 55.406 120.462 55.406 121.105V121.517ZM54.5567 121.096C54.5567 120.583 54.4874 120.151 54.3488 119.8C54.2102 119.446 54.0111 119.178 53.7516 118.995C53.4921 118.812 53.1795 118.721 52.8139 118.721C52.4629 118.721 52.1562 118.812 51.8938 118.995C51.6343 119.178 51.4322 119.446 51.2877 119.8C51.1462 120.151 51.0754 120.583 51.0754 121.096V121.517C51.0754 122.033 51.1477 122.468 51.2922 122.822C51.4367 123.175 51.6401 123.444 51.9026 123.627C52.1651 123.81 52.4718 123.901 52.8227 123.901C53.1913 123.901 53.5039 123.81 53.7605 123.627C54.02 123.444 54.2176 123.175 54.3532 122.822C54.4889 122.468 54.5567 122.033 54.5567 121.517V121.096Z" fill="white"/>
<path d="M47.9632 122.485C47.9189 122.889 47.8025 123.254 47.6137 123.578C47.425 123.899 47.1581 124.153 46.8131 124.339C46.468 124.525 46.036 124.618 45.517 124.618C45.0127 124.618 44.5718 124.495 44.1943 124.25C43.8169 124.003 43.5234 123.655 43.3141 123.206C43.1047 122.758 43 122.235 43 121.636V120.986C43 120.384 43.1047 119.861 43.3141 119.416C43.5264 118.967 43.8272 118.619 44.2165 118.372C44.6057 118.124 45.0658 118 45.5966 118C46.0832 118 46.4946 118.091 46.8308 118.274C47.1669 118.454 47.4279 118.706 47.6137 119.031C47.8025 119.355 47.9189 119.73 47.9632 120.154H47.105C47.0401 119.703 46.8956 119.348 46.6715 119.088C46.4503 118.826 46.092 118.694 45.5966 118.694C45.2162 118.694 44.8977 118.79 44.6411 118.982C44.3846 119.171 44.1899 119.436 44.0572 119.778C43.9275 120.12 43.8626 120.52 43.8626 120.977V121.636C43.8626 122.058 43.9216 122.443 44.0395 122.791C44.1575 123.136 44.3374 123.411 44.5792 123.618C44.824 123.824 45.1366 123.927 45.517 123.927C45.8797 123.927 46.1672 123.87 46.3796 123.755C46.5948 123.64 46.757 123.475 46.8661 123.26C46.9782 123.044 47.0578 122.786 47.105 122.485H47.9632Z" fill="white"/>
</g>
<defs>
<filter id="filter0_d_589_416" x="0" y="95" width="157.999" height="19.0674" filterUnits="userSpaceOnUse" color-interpolation-filters="sRGB">
<feFlood flood-opacity="0" result="BackgroundImageFix"/>
<feColorMatrix in="SourceAlpha" type="matrix" values="0 0 0 0 0 0 0 0 0 0 0 0 0 0 0 0 0 0 127 0" result="hardAlpha"/>
<feOffset/>
<feGaussianBlur stdDeviation="2"/>
<feComposite in2="hardAlpha" operator="out"/>
<feColorMatrix type="matrix" values="0 0 0 0 0 0 0 0 0 0 0 0 0 0 0 0 0 0 1 0"/>
<feBlend mode="normal" in2="BackgroundImageFix" result="effect1_dropShadow_589_416"/>
<feBlend mode="normal" in="SourceGraphic" in2="effect1_dropShadow_589_416" result="shape"/>
</filter>
<filter id="filter1_d_589_416" x="32" y="0" width="89.2871" height="88.5205" filterUnits="userSpaceOnUse" color-interpolation-filters="sRGB">
<feFlood flood-opacity="0" result="BackgroundImageFix"/>
<feColorMatrix in="SourceAlpha" type="matrix" values="0 0 0 0 0 0 0 0 0 0 0 0 0 0 0 0 0 0 127 0" result="hardAlpha"/>
<feOffset/>
<feGaussianBlur stdDeviation="2"/>
<feComposite in2="hardAlpha" operator="out"/>
<feColorMatrix type="matrix" values="0 0 0 0 0 0 0 0 0 0 0 0 0 0 0 0 0 0 0.8 0"/>
<feBlend mode="normal" in2="BackgroundImageFix" result="effect1_dropShadow_589_416"/>
<feBlend mode="normal" in="SourceGraphic" in2="effect1_dropShadow_589_416" result="shape"/>
</filter>
<filter id="filter2_d_589_416" x="41" y="116" width="74" height="10.6172" filterUnits="userSpaceOnUse" color-interpolation-filters="sRGB">
<feFlood flood-opacity="0" result="BackgroundImageFix"/>
<feColorMatrix in="SourceAlpha" type="matrix" values="0 0 0 0 0 0 0 0 0 0 0 0 0 0 0 0 0 0 127 0" result="hardAlpha"/>
<feOffset/>
<feGaussianBlur stdDeviation="1"/>
<feComposite in2="hardAlpha" operator="out"/>
<feColorMatrix type="matrix" values="0 0 0 0 0 0 0 0 0 0 0 0 0 0 0 0 0 0 1 0"/>
<feBlend mode="normal" in2="BackgroundImageFix" result="effect1_dropShadow_589_416"/>
<feBlend mode="normal" in="SourceGraphic" in2="effect1_dropShadow_589_416" result="shape"/>
</filter>
</defs>
</svg>
